<svg xmlns="http://www.w3.org/2000/svg" xmlns:xlink="http://www.w3.org/1999/xlink" width="3512" height="1984.5308" viewBox="0 0 3512 1984.5308"><defs><radialGradient id="a" cx="1350.8844" cy="676.1208" r="778.256" gradientUnits="userSpaceOnUse"><stop offset="0" stop-color="#e39a65"/><stop offset="0.4742" stop-color="#a92ffb"/><stop offset="0.5947" stop-color="#891cfb"/><stop offset="0.7421" stop-color="#6507fa"/><stop offset="0.8016" stop-color="#0d0c6f"/></radialGradient><radialGradient id="b" cx="874.8864" cy="1301.1169" r="851.0161" gradientUnits="userSpaceOnUse"><stop offset="0" stop-color="#e39a65"/><stop offset="0.4742" stop-color="#a92ffb"/><stop offset="0.5679" stop-color="#891cfb"/><stop offset="0.6825" stop-color="#6507fa"/><stop offset="0.7381" stop-color="#0d0c6f"/></radialGradient><radialGradient id="c" cx="953.1569" cy="1130.3038" r="763.1434" gradientUnits="userSpaceOnUse"><stop offset="0" stop-color="#e39a65"/><stop offset="0.4742" stop-color="#a92ffb"/><stop offset="0.5875" stop-color="#891cfb"/><stop offset="0.7262" stop-color="#6507fa"/><stop offset="1" stop-color="#3919bb"/></radialGradient><radialGradient id="d" cx="1143.2717" cy="838.4578" r="778.4123" xlink:href="#c"/><linearGradient id="e" x1="1228.828" y1="1042.7925" x2="1852.5812" y2="1042.7925" gradientUnits="userSpaceOnUse"><stop offset="0" stop-color="#3919bb"/><stop offset="1" stop-color="#6507fa"/></linearGradient><radialGradient id="f" cx="859.1084" cy="672.2318" r="1212.3565" xlink:href="#c"/><radialGradient id="g" cx="827.2876" cy="909.8484" r="576.2925" gradientUnits="userSpaceOnUse"><stop offset="0" stop-color="#e39a65"/><stop offset="0.1528" stop-color="#a92ffb"/><stop offset="0.4087" stop-color="#3919bb"/><stop offset="0.9311" stop-color="#3919bb"/></radialGradient><linearGradient id="h" x1="837.4868" y1="838.4575" x2="1044.1984" y2="838.4575" gradientUnits="userSpaceOnUse"><stop offset="0" stop-color="#e39a65"/><stop offset="0.252" stop-color="#a92ffb"/><stop offset="0.5556" stop-color="#3919bb"/></linearGradient><linearGradient id="i" x1="831.8694" y1="827.9541" x2="999.8064" y2="827.9541" gradientUnits="userSpaceOnUse"><stop offset="0" stop-color="#4f1fec"/><stop offset="1" stop-color="#a92ffb"/></linearGradient><linearGradient id="j" x1="827.8851" y1="827.9541" x2="995.8222" y2="827.9541" xlink:href="#i"/><linearGradient id="k" x1="856.8833" y1="805.8187" x2="1068.6234" y2="805.8187" gradientUnits="userSpaceOnUse"><stop offset="0" stop-color="#131060"/><stop offset="0.1857" stop-color="#141062"/><stop offset="0.2823" stop-color="#19106a"/><stop offset="0.3584" stop-color="#221078"/><stop offset="0.4238" stop-color="#2e0f8b"/><stop offset="0.4823" stop-color="#3e0fa3"/><stop offset="0.5359" stop-color="#510ec2"/><stop offset="0.5847" stop-color="#680de5"/><stop offset="0.6071" stop-color="#740df8"/><stop offset="0.6179" stop-color="#7a14f0"/><stop offset="0.6826" stop-color="#9b3cc3"/><stop offset="0.7477" stop-color="#b75d9d"/><stop offset="0.8123" stop-color="#cc7680"/><stop offset="0.8762" stop-color="#dc886c"/><stop offset="0.9391" stop-color="#e5935f"/><stop offset="1" stop-color="#e8975b"/></linearGradient><radialGradient id="l" cx="811.6861" cy="779.9736" r="376.9868" gradientUnits="userSpaceOnUse"><stop offset="0" stop-color="#e39a65"/><stop offset="0.252" stop-color="#a92ffb"/><stop offset="0.7357" stop-color="#3919bb"/></radialGradient><linearGradient id="m" x1="927.5475" y1="874.1559" x2="956.8402" y2="874.1559" xlink:href="#k"/></defs><title>bg</title><path d="M3465.1787,402.2458S3300.4739,302.0882,3394.13,161.5444,3348.9165,0,3348.9165,0l-1156.97,1.6054V.6167H48.8015S-106.7759,349.8742,377.583,194.6351s409.3266,59.0123,344.0026,166.92c-70.82,116.9874-165.28,188.2071-156.85,303.917,11.0623,151.83,233.5559,157.3488,420.1152,253.8644,450.4862,233.0571-58.427,38.958-230.052,150.4059s-66.945,194.5046,170.5086,185.9836c512.8071-18.4022,342.7188,155.0641,257.0492,233.6343s-70.9238,258.1355,332.6806,136.7392c318.6292-95.8375,291.139,66.674,265.4393,139.3537-.0015.0029-5.1746,10.7888-11.2433,27.569-1.4511,3.0959-2.3372,4.8084-2.3372,4.8084h.6337c-23.8747,68.7524-55.1862,219.9166,150.3565,180.134,162.3024-31.4131,220.901-75.0629,274.06-96.4812v-3.1144c41.7886-30.52,253.9262-190.8738,351.2087-369.5434,108.1884-198.7,289.0407-8.0772,289.0407-8.0772s161.4753,130.851,297.1145,63.0023,88.8114-189.007,88.8114-189.007-12.9181-151.8519-148.5573-234.24-4.8442-297.2419-4.8442-297.2419,64.59-114.6966,190.5408-109.85,261.59-27.4625,279.3521-137.3128S3465.1787,402.2458,3465.1787,402.2458Z" transform="translate(-25)" fill="#2ee9b4"/><path d="M2037.2076,1568.0043a24.2634,24.2634,0,0,1-12.1342-3.2438l-40.9046-23.6179a7.5713,7.5713,0,0,1,0-13.1208l40.9046-23.6178a24.3309,24.3309,0,0,1,24.2644,0l40.9082,23.6178a7.5714,7.5714,0,0,1,0,13.1208l-40.9047,23.6179A24.2518,24.2518,0,0,1,2037.2076,1568.0043Zm0-60.3565a17.7875,17.7875,0,0,0-8.8939,2.3721l-40.9046,23.6178a1.0912,1.0912,0,0,0,0,1.8891l40.9081,23.6178h.0035a17.8326,17.8326,0,0,0,17.78,0l40.9051-23.6178a1.0917,1.0917,0,0,0,0-1.8891l-40.9086-23.6178A17.7827,17.7827,0,0,0,2037.2076,1507.6478Z" transform="translate(-25)" fill="#fff"/><path d="M1920.2148,1433.99a39.3766,39.3766,0,0,1-19.71-5.2656l-70.3969-40.646a10.6927,10.6927,0,0,1,0-18.5293l70.3934-40.6426a39.5107,39.5107,0,0,1,39.4209,0l70.4006,40.6426a10.701,10.701,0,0,1,.0035,18.5328l-70.4006,40.6425A39.4124,39.4124,0,0,1,1920.2148,1433.99Zm-16.47-10.8815a33.0519,33.0519,0,0,0,32.94,0l70.397-40.6425a4.2192,4.2192,0,0,0,0-7.3007l-70.4-40.6429a33.054,33.054,0,0,0-32.94,0l-70.3935,40.6429a4.2127,4.2127,0,0,0,0,7.2972Z" transform="translate(-25)" fill="#fff"/><path d="M698.6909,1506.4652a39.3788,39.3788,0,0,1-19.71-5.2652L608.58,1460.5571a10.6992,10.6992,0,0,1,0-18.5324l70.3974-40.6429a39.5023,39.5023,0,0,1,39.4206,0l70.3973,40.646a10.6931,10.6931,0,0,1,0,18.5293L718.4014,1501.2A39.4165,39.4165,0,0,1,698.6909,1506.4652Zm-.0032-103.865a32.96,32.96,0,0,0-16.47,4.3978L611.82,1447.6405a4.2174,4.2174,0,0,0,.0034,7.3007l70.397,40.6429h0a33.054,33.054,0,0,0,32.94,0l70.3938-40.6429a4.2127,4.2127,0,0,0,0-7.2972l-70.3973-40.646A32.96,32.96,0,0,0,698.6877,1402.6Z" transform="translate(-25)" fill="#6b46c1"/><path d="M1646.25,1751.42a28.3864,28.3864,0,0,1-14.2075-3.7953l-50.7467-29.2965a7.7123,7.7123,0,0,1,0-13.3586l50.7442-29.2964a28.4741,28.4741,0,0,1,28.4153,0l50.7442,29.2986a7.7079,7.7079,0,0,1,0,13.3564l-50.7417,29.2965A28.4129,28.4129,0,0,1,1646.25,1751.42Zm-.0022-74.8685a23.759,23.759,0,0,0-11.8722,3.17l-50.7441,29.2962a3.04,3.04,0,0,0,.0025,5.2625l50.7439,29.2964h0a23.826,23.826,0,0,0,23.7442,0l50.7417-29.2964a3.0366,3.0366,0,0,0,0-5.26l-50.7442-29.2987A23.7581,23.7581,0,0,0,1646.2478,1676.5514Z" transform="translate(-25)" fill="#6b46c1"/><path d="M1385.679,1727.736c-5.8849,0-11.528-1.2219-15.84-3.7132h.0034L795.331,1392.33c-4.6937-2.706-7.277-6.6134-7.277-10.9972,0-5.0374,3.5059-9.9523,9.6188-13.4819l391.624-229.445c10.7417-6.2048,26.5212-6.8005,35.9322-1.3648l574.5077,331.6966c4.6936,2.706,7.277,6.6134,7.277,10.9972,0,5.0373-3.5059,9.9488-9.622,13.4784l-391.6208,229.4449A41.0952,41.0952,0,0,1,1385.679,1727.736Zm-176.2155-587.8941a34.953,34.953,0,0,0-16.9058,4.17l-391.6209,229.445c-4.013,2.318-6.3956,5.2586-6.3956,7.8726,0,2.5254,2.1919,4.3225,4.03,5.3844l574.5111,331.6935h.0032c7.3348,4.2409,20.8132,3.6212,29.4209-1.3547l391.6244-229.445c4.013-2.3181,6.3955-5.2551,6.3955-7.8726,0-2.522-2.1919-4.3193-4.03-5.3813l-574.5077-331.6966C1218.7111,1140.7676,1214.2081,1139.8419,1209.4635,1139.8419Z" transform="translate(-25)" fill="#fff"/><path d="M1374.1469,1675.2661,870.7621,1384.6369c-7.3372-4.2364-6.4171-11.6357,2.055-16.527l323.0767-186.5286c8.4721-4.8913,21.2883-5.4224,28.6256-1.1864l503.385,290.6292c7.3369,4.2364,6.4168,11.6357-2.0553,16.527L1402.7724,1674.08C1394.3,1678.971,1381.4841,1679.5025,1374.1469,1675.2661Z" transform="translate(-25)" fill="#020230" opacity="0.6"/><path d="M1861.6337,983.782l-501.403-289.4854a12.9921,12.9921,0,0,0-10.2343-1.47v-.0007l-.0041.0017c-.0154.0046-.03.0115-.0457.0157l-9.2835,3.2351,3.2679.7723a16.2017,16.2017,0,0,0-3.0615,5.7344l-113.39,368.1575c-2.8084,9.13,1.3063,20.2214,9.1912,24.7736l501.4029,289.4849a14.7116,14.7116,0,0,0,3.6889,1.5067l-1.2422,2.7057,8.8687-3.1148-.0209-.0074c3.6327-1.445,6.6249-4.69,8.0672-9.3786l113.39-368.1578C1873.6332,999.4254,1869.5181,988.3341,1861.6337,983.782Z" transform="translate(-25)" fill="url(#a)"/><path d="M1720.1259,1398.7482l.1778.2123-495.2566-285.9366c-7.2854-4.2061-20.011-3.6788-28.4235,1.178L876.64,1298.9443l-10.67-4.0737,2.9967,14.9694.0146-.0083c.3973,2.2511,1.9741,4.36,4.8035,5.9933l499.8342,288.58c7.2857,4.2064,20.0112,3.6787,28.4237-1.178L1722.84,1418.0136c3.9586-2.285,6.2338-5.1213,6.7984-7.9228l.0185.022,3.0611-14.5693Z" transform="translate(-25)" fill="url(#b)"/><path d="M1374.1469,1591.2349,870.7621,1300.6057c-7.3372-4.2364-6.4171-11.6357,2.055-16.527L1195.8938,1097.55c8.4721-4.8912,21.2883-5.4227,28.6256-1.1864l503.385,290.6292c7.3369,4.2364,6.4168,11.6358-2.0553,16.527l-323.0767,186.5286C1394.3,1594.94,1381.4841,1595.4713,1374.1469,1591.2349Z" transform="translate(-25)" fill="url(#c)"/><path d="M1725.8484,1399.6l-323.076,186.5279c-8.4721,4.8916-21.2883,5.4235-28.6252,1.1874l-503.3854-290.63a9.3992,9.3992,0,0,1-4.5773-5.22c-.9717,3.3749.4507,6.7577,4.5773,9.14l503.3854,290.63c7.3369,4.236,20.1531,3.7041,28.6252-1.1864l323.076-186.5286c5.5863-3.225,7.8141-7.5272,6.6333-11.3067C1731.7247,1394.8387,1729.5565,1397.46,1725.8484,1399.6Z" transform="translate(-25)" fill="#fff"/><g opacity="0.4"><path d="M1110.87,1253.4414l-16.995-9.8121c-1.3645-.7877-1.1934-2.1641.3823-3.0737l20.06-11.5814a5.9168,5.9168,0,0,1,5.3238-.2209l16.9947,9.8121c1.3649.7877,1.1937,2.1641-.382,3.0737l-20.06,11.5814A5.9162,5.9162,0,0,1,1110.87,1253.4414Z" transform="translate(-25)" fill="#06033e"/><path d="M1137.1151,1268.5942l-16.9947-9.8122c-1.3648-.7877-1.1937-2.164.382-3.0737l20.06-11.5813a5.9159,5.9159,0,0,1,5.3235-.221l16.9951,9.8122c1.3645.7877,1.1933,2.164-.3824,3.0737l-20.06,11.5813A5.9168,5.9168,0,0,1,1137.1151,1268.5942Z" transform="translate(-25)" fill="#06033e"/><path d="M1163.3606,1283.7469l-16.9951-9.8122c-1.3645-.7877-1.1934-2.164.3823-3.0737l20.06-11.5813a5.916,5.916,0,0,1,5.3234-.221l16.9951,9.8122c1.3645.7877,1.1934,2.164-.3823,3.0737l-20.06,11.5813A5.9165,5.9165,0,0,1,1163.3606,1283.7469Z" transform="translate(-25)" fill="#06033e"/><path d="M1199.6593,1271.2329l-16.995-9.8118c-1.3645-.7877-1.1934-2.1641.3823-3.0737l16.8389-9.722a5.9183,5.9183,0,0,1,5.3239-.2209l16.995,9.8122c1.3645.7876,1.1934,2.164-.3823,3.0737l-16.8393,9.7219A5.9161,5.9161,0,0,1,1199.6593,1271.2329Z" transform="translate(-25)" fill="#06033e"/><path d="M1225.9045,1286.3856l-16.9948-9.8118c-1.3648-.7877-1.1937-2.164.382-3.0737l16.8393-9.7219a5.9178,5.9178,0,0,1,5.3238-.221l16.9947,9.8122c1.3645.7877,1.1934,2.164-.382,3.0737l-16.8393,9.7219A5.9162,5.9162,0,0,1,1225.9045,1286.3856Z" transform="translate(-25)" fill="#06033e"/><path d="M1252.15,1301.5387l-16.9951-9.8122c-1.3645-.7877-1.1934-2.164.3823-3.0737l16.8393-9.7219a5.9174,5.9174,0,0,1,5.3235-.221l16.995,9.8122c1.3645.7877,1.1934,2.1641-.3823,3.0737l-16.8393,9.722A5.9172,5.9172,0,0,1,1252.15,1301.5387Z" transform="translate(-25)" fill="#06033e"/><path d="M1278.3953,1316.6915l-16.9951-9.8122c-1.3645-.7877-1.1933-2.1641.3824-3.0737l16.8389-9.722a5.9171,5.9171,0,0,1,5.3238-.2206l16.9951,9.8119c1.3645.7876,1.1933,2.164-.3824,3.0737l-16.8392,9.7219A5.9175,5.9175,0,0,1,1278.3953,1316.6915Z" transform="translate(-25)" fill="#06033e"/><path d="M1304.64,1331.8442l-16.9948-9.8122c-1.3648-.7877-1.1937-2.164.382-3.0737l16.8393-9.7219a5.9164,5.9164,0,0,1,5.3238-.2206l16.9947,9.8118c1.3645.788,1.1934,2.164-.3819,3.0737l-16.8393,9.7219A5.9168,5.9168,0,0,1,1304.64,1331.8442Z" transform="translate(-25)" fill="#06033e"/><path d="M1330.8858,1346.9969l-16.9951-9.8122c-1.3645-.7876-1.1933-2.164.3824-3.0737l16.8392-9.7219a5.9161,5.9161,0,0,1,5.3235-.2206l16.9951,9.8118c1.3645.7881,1.1933,2.1641-.3823,3.0737l-16.839,9.722A5.9168,5.9168,0,0,1,1330.8858,1346.9969Z" transform="translate(-25)" fill="#06033e"/><path d="M1357.1312,1362.15l-16.995-9.8122c-1.3645-.7877-1.1934-2.1641.3823-3.0737l16.8389-9.722a5.9171,5.9171,0,0,1,5.3238-.2206l16.9951,9.8119c1.3645.788,1.1934,2.164-.3823,3.0737l-16.8393,9.7219A5.9165,5.9165,0,0,1,1357.1312,1362.15Z" transform="translate(-25)" fill="#06033e"/><path d="M1383.3763,1377.3024l-16.9947-9.8122c-1.3645-.7877-1.1934-2.164.382-3.0737l16.8393-9.7219a5.9164,5.9164,0,0,1,5.3238-.2206l16.9947,9.8118c1.3645.788,1.1934,2.164-.382,3.0737l-16.8393,9.7223A5.918,5.918,0,0,1,1383.3763,1377.3024Z" transform="translate(-25)" fill="#06033e"/><path d="M1409.6217,1392.4551l-16.995-9.8122c-1.3645-.7876-1.1934-2.164.3823-3.0737l16.8393-9.7219a5.9159,5.9159,0,0,1,5.3234-.2206l16.9951,9.8118c1.3646.7881,1.1934,2.1641-.3823,3.0737l-16.839,9.7223A5.9177,5.9177,0,0,1,1409.6217,1392.4551Z" transform="translate(-25)" fill="#06033e"/><path d="M1435.8672,1407.6079l-16.9951-9.8122c-1.3645-.7877-1.1934-2.1641.3823-3.0737l16.839-9.722a5.9171,5.9171,0,0,1,5.3238-.2206l16.995,9.8119c1.3645.788,1.1934,2.164-.3823,3.0737l-16.8393,9.7222A5.9172,5.9172,0,0,1,1435.8672,1407.6079Z" transform="translate(-25)" fill="#06033e"/><path d="M1238.33,1264.0591l-16.9947-9.8119c-1.3645-.788-1.1934-2.164.382-3.0736l16.8392-9.7223a5.9179,5.9179,0,0,1,5.3239-.2206l16.9947,9.8122c1.3645.7876,1.1934,2.164-.382,3.0736l-16.8393,9.722A5.9171,5.9171,0,0,1,1238.33,1264.0591Z" transform="translate(-25)" fill="#06033e"/><path d="M1211.6931,1248.68l-16.9951-9.8119c-1.3645-.788-1.1934-2.164.3824-3.0737l16.8389-9.7223a5.918,5.918,0,0,1,5.3238-.2206l16.9951,9.8122c1.3644.7877,1.1933,2.1641-.3824,3.0737l-16.8393,9.7219A5.9159,5.9159,0,0,1,1211.6931,1248.68Z" transform="translate(-25)" fill="#06033e"/><path d="M1185.0123,1233.2761l-36.6027-21.1324c-1.3645-.7877-1.1934-2.1641.3824-3.0737l16.8389-9.722a5.9181,5.9181,0,0,1,5.3238-.2209l36.6027,21.1328c1.3645.7877,1.1934,2.164-.382,3.0737l-16.8393,9.7219A5.9164,5.9164,0,0,1,1185.0123,1233.2761Z" transform="translate(-25)" fill="#06033e"/><path d="M1203.6619,1214.5429l-29.7039-17.1494c-1.3648-.7881-1.1937-2.1641.382-3.0737l16.8392-9.7223a5.9177,5.9177,0,0,1,5.3238-.2206l29.704,17.15c1.3644.7877,1.1933,2.164-.382,3.0737l-16.8393,9.7219A5.9164,5.9164,0,0,1,1203.6619,1214.5429Z" transform="translate(-25)" fill="#06033e"/><path d="M1264.5753,1279.2118,1247.58,1269.4c-1.3645-.788-1.1934-2.164.3823-3.0737l16.8393-9.7223a5.9169,5.9169,0,0,1,5.3234-.2206l16.9951,9.8122c1.3645.7877,1.1934,2.164-.3823,3.0737l-16.839,9.7219A5.9164,5.9164,0,0,1,1264.5753,1279.2118Z" transform="translate(-25)" fill="#06033e"/><path d="M1290.8208,1294.3646l-16.9951-9.8119c-1.3645-.788-1.1934-2.164.3823-3.0737l16.839-9.7223a5.918,5.918,0,0,1,5.3238-.2206l16.995,9.8122c1.3645.7877,1.1934,2.164-.3823,3.0737l-16.8393,9.7219A5.9159,5.9159,0,0,1,1290.8208,1294.3646Z" transform="translate(-25)" fill="#06033e"/><path d="M1317.0658,1309.5173l-16.9947-9.8119c-1.3645-.788-1.1933-2.164.382-3.0736l16.8393-9.722a5.9168,5.9168,0,0,1,5.3238-.2209l16.9947,9.8122c1.3646.7876,1.1934,2.164-.382,3.0736l-16.8392,9.722A5.9173,5.9173,0,0,1,1317.0658,1309.5173Z" transform="translate(-25)" fill="#06033e"/><path d="M1343.3113,1324.67l-16.9951-9.8118c-1.3645-.788-1.1934-2.164.3823-3.0737l16.8393-9.7219a5.9159,5.9159,0,0,1,5.3235-.221l16.995,9.8122c1.3645.7877,1.1934,2.164-.3823,3.0737l-16.8389,9.7219A5.9164,5.9164,0,0,1,1343.3113,1324.67Z" transform="translate(-25)" fill="#06033e"/><path d="M1369.5567,1339.8228l-16.9951-9.8119c-1.3645-.788-1.1933-2.164.3824-3.0737l16.8392-9.7219a5.9162,5.9162,0,0,1,5.3235-.221l16.9951,9.8122c1.3645.7877,1.1933,2.1641-.3824,3.0737l-16.8392,9.7219A5.9161,5.9161,0,0,1,1369.5567,1339.8228Z" transform="translate(-25)" fill="#06033e"/><path d="M1395.8018,1354.9755l-16.9947-9.8118c-1.3645-.7877-1.1934-2.1641.382-3.0737l16.8392-9.722a5.9181,5.9181,0,0,1,5.3238-.2209l16.9948,9.8122c1.3648.7876,1.1937,2.164-.382,3.0737l-16.8393,9.7219A5.917,5.917,0,0,1,1395.8018,1354.9755Z" transform="translate(-25)" fill="#06033e"/><path d="M1422.0473,1370.1282l-16.9952-9.8118c-1.3645-.7877-1.1933-2.164.3824-3.0737l16.8393-9.7219a5.9169,5.9169,0,0,1,5.3234-.221l16.9951,9.8122c1.3645.7877,1.1934,2.164-.3823,3.0737l-16.839,9.7219A5.9162,5.9162,0,0,1,1422.0473,1370.1282Z" transform="translate(-25)" fill="#06033e"/><path d="M1448.2926,1385.2813l-16.995-9.8122c-1.3645-.7877-1.1934-2.164.3823-3.0737l16.8393-9.7219a5.9172,5.9172,0,0,1,5.3234-.221l16.9951,9.8122c1.3645.7877,1.1934,2.1641-.3823,3.0737l-16.8393,9.7219A5.9171,5.9171,0,0,1,1448.2926,1385.2813Z" transform="translate(-25)" fill="#06033e"/><path d="M1474.5381,1400.434l-16.9951-9.8121c-1.3645-.7877-1.1933-2.1641.3823-3.0737l16.839-9.722a5.9171,5.9171,0,0,1,5.3238-.2206l16.995,9.8119c1.3645.7876,1.1934,2.164-.3823,3.0737l-16.8392,9.7219A5.9175,5.9175,0,0,1,1474.5381,1400.434Z" transform="translate(-25)" fill="#06033e"/><path d="M1521.1963,1427.372l-37.0816-21.4089c-1.3645-.788-1.1934-2.164.3823-3.0737l16.8393-9.7222a5.9168,5.9168,0,0,1,5.3234-.2206l37.0816,21.4092c1.3645.7876,1.1934,2.1636-.3823,3.0737l-16.8389,9.7219A5.9168,5.9168,0,0,1,1521.1963,1427.372Z" transform="translate(-25)" fill="#06033e"/><path d="M1572.2927,1397.8716l-31.2981-18.07c-1.3649-.788-1.1938-2.164.382-3.0737l16.8392-9.7223a5.918,5.918,0,0,1,5.3238-.2206l31.2981,18.07c1.3645.788,1.1934,2.164-.3823,3.0737l-16.8393,9.7222A5.9168,5.9168,0,0,1,1572.2927,1397.8716Z" transform="translate(-25)" fill="#06033e"/><path d="M1310.5365,1276.2472l-16.9948-9.8122c-1.3648-.7877-1.1937-2.1637.3821-3.0737l16.8392-9.7219a5.9169,5.9169,0,0,1,5.3239-.2206l16.9946,9.8118c1.3645.7881,1.1934,2.1641-.3819,3.0737l-16.8393,9.7223A5.9177,5.9177,0,0,1,1310.5365,1276.2472Z" transform="translate(-25)" fill="#06033e"/><path d="M1283.6382,1260.7174l-16.9947-9.8119c-1.3645-.788-1.1934-2.164.382-3.0737l16.8393-9.7222a5.918,5.918,0,0,1,5.3238-.2207l16.9947,9.8122c1.3645.7877,1.1934,2.1641-.382,3.0737l-16.8393,9.722A5.9171,5.9171,0,0,1,1283.6382,1260.7174Z" transform="translate(-25)" fill="#06033e"/><path d="M1256.74,1245.1879l-16.9947-9.8122c-1.3645-.7877-1.1934-2.1637.382-3.0737l16.8393-9.7219a5.9168,5.9168,0,0,1,5.3238-.2207l16.9947,9.8119c1.3648.788,1.1937,2.164-.382,3.0737l-16.8393,9.7223A5.918,5.918,0,0,1,1256.74,1245.1879Z" transform="translate(-25)" fill="#06033e"/><path d="M1229.8421,1229.658l-16.995-9.8118c-1.3645-.788-1.1934-2.164.3823-3.0737l16.8389-9.7223a5.918,5.918,0,0,1,5.3238-.2206l16.9951,9.8122c1.3645.7877,1.1934,2.1637-.3823,3.0737l-16.8393,9.7219A5.9158,5.9158,0,0,1,1229.8421,1229.658Z" transform="translate(-25)" fill="#06033e"/><path d="M1336.7819,1291.4l-16.9951-9.8122c-1.3645-.7877-1.1933-2.1637.3824-3.0734l16.8392-9.7223a5.9164,5.9164,0,0,1,5.3235-.2206l16.9951,9.8119c1.3645.788,1.1933,2.164-.3824,3.0737l-16.8392,9.7222A5.9174,5.9174,0,0,1,1336.7819,1291.4Z" transform="translate(-25)" fill="#06033e"/><path d="M1363.0273,1306.5527l-16.995-9.8122c-1.3645-.7877-1.1934-2.1637.3823-3.0734l16.839-9.7222a5.9162,5.9162,0,0,1,5.3237-.2206l16.9951,9.8118c1.3645.788,1.1934,2.164-.3823,3.0737l-16.8393,9.7223A5.9174,5.9174,0,0,1,1363.0273,1306.5527Z" transform="translate(-25)" fill="#06033e"/><path d="M1389.2724,1321.7054l-16.9947-9.8122c-1.3645-.7877-1.1934-2.1637.382-3.0733l16.8392-9.7223a5.917,5.917,0,0,1,5.3239-.2206l16.9947,9.8118c1.3645.7881,1.1933,2.1641-.382,3.0737l-16.8393,9.7223A5.9177,5.9177,0,0,1,1389.2724,1321.7054Z" transform="translate(-25)" fill="#06033e"/><path d="M1415.5178,1336.8582l-16.995-9.8122c-1.3645-.7877-1.1934-2.1637.3823-3.0734l16.8393-9.7223a5.9174,5.9174,0,0,1,5.3235-.2206l16.995,9.8119c1.3645.788,1.1934,2.164-.3823,3.0737l-16.839,9.7222A5.918,5.918,0,0,1,1415.5178,1336.8582Z" transform="translate(-25)" fill="#06033e"/><path d="M1441.7633,1352.0109l-16.9951-9.8122c-1.3645-.7877-1.1934-2.1637.3823-3.0733l16.839-9.7223a5.9177,5.9177,0,0,1,5.3238-.2206l16.995,9.8118c1.3646.788,1.1934,2.164-.3823,3.0737l-16.8393,9.7223A5.9172,5.9172,0,0,1,1441.7633,1352.0109Z" transform="translate(-25)" fill="#06033e"/><path d="M1468.0083,1367.1636l-16.9946-9.8122c-1.3646-.7876-1.1934-2.1636.3819-3.0733l16.8393-9.7223a5.9177,5.9177,0,0,1,5.3238-.2206l16.9947,9.8122c1.3645.7877,1.1934,2.1637-.382,3.0733l-16.8392,9.7223A5.9179,5.9179,0,0,1,1468.0083,1367.1636Z" transform="translate(-25)" fill="#06033e"/><path d="M1494.2538,1382.3164l-16.9951-9.8122c-1.3645-.7877-1.1934-2.1637.3823-3.0734l16.8393-9.7223a5.9174,5.9174,0,0,1,5.3235-.2206l16.9951,9.8122c1.3644.7877,1.1933,2.1637-.3824,3.0734l-16.8389,9.7222A5.918,5.918,0,0,1,1494.2538,1382.3164Z" transform="translate(-25)" fill="#06033e"/><path d="M1520.4992,1397.4691l-16.9951-9.8122c-1.3644-.7877-1.1933-2.1637.3824-3.0733l16.8392-9.7223a5.917,5.917,0,0,1,5.3235-.2206l16.9951,9.8122c1.3645.7876,1.1933,2.1636-.3824,3.0733l-16.8392,9.7223A5.9174,5.9174,0,0,1,1520.4992,1397.4691Z" transform="translate(-25)" fill="#06033e"/><path d="M1546.7443,1412.6218,1529.75,1402.81c-1.3645-.788-1.1934-2.164.382-3.0737l16.8392-9.7223a5.9177,5.9177,0,0,1,5.3238-.2206l16.9948,9.8122c1.3648.7877,1.1937,2.1637-.382,3.0733l-16.8393,9.7223A5.9177,5.9177,0,0,1,1546.7443,1412.6218Z" transform="translate(-25)" fill="#06033e"/><path d="M1296.7169,1238.7679l-16.9951-9.8122c-1.3645-.7876-1.1934-2.164.3823-3.0736l16.839-9.722a5.9171,5.9171,0,0,1,5.3238-.2206l16.9951,9.8119c1.3644.788,1.1933,2.164-.3824,3.0736l-16.8393,9.722A5.9172,5.9172,0,0,1,1296.7169,1238.7679Z" transform="translate(-25)" fill="#06033e"/><path d="M1270.6021,1223.6905l-16.995-9.8122c-1.3645-.7877-1.1934-2.1637.3823-3.0734l16.8389-9.7222a5.9166,5.9166,0,0,1,5.3239-.2206l16.995,9.8118c1.3645.788,1.1934,2.164-.3823,3.0737l-16.8393,9.7223A5.9174,5.9174,0,0,1,1270.6021,1223.6905Z" transform="translate(-25)" fill="#06033e"/><path d="M1244.4874,1208.613l-16.9951-9.8118c-1.3645-.788-1.1933-2.164.3824-3.0737l16.8389-9.7223a5.918,5.918,0,0,1,5.3238-.2206l16.9951,9.8122c1.3645.7877,1.1933,2.1637-.3824,3.0733l-16.8392,9.7223A5.9158,5.9158,0,0,1,1244.4874,1208.613Z" transform="translate(-25)" fill="#06033e"/><path d="M1218.3727,1193.5356l-16.9951-9.8119c-1.3645-.788-1.1934-2.164.3823-3.0737l16.839-9.7219a5.9168,5.9168,0,0,1,5.3238-.2209l16.9947,9.8121c1.3648.7877,1.1938,2.1641-.382,3.0737l-16.8393,9.722A5.9162,5.9162,0,0,1,1218.3727,1193.5356Z" transform="translate(-25)" fill="#06033e"/><path d="M1245.2263,1178.0315l-16.9947-9.8118c-1.3649-.788-1.1938-2.164.382-3.0737l5.5667-3.2138a5.9178,5.9178,0,0,1,5.3238-.221l16.9947,9.8122c1.3645.7877,1.1934,2.164-.382,3.0737l-5.5667,3.2138A5.9164,5.9164,0,0,1,1245.2263,1178.0315Z" transform="translate(-25)" fill="#06033e"/><path d="M1279.306,1197.7075l-16.9947-9.8118c-1.3645-.7881-1.1934-2.1641.382-3.0737l5.5667-3.2138a5.9178,5.9178,0,0,1,5.3238-.221l16.9947,9.8122c1.3645.7877,1.1934,2.164-.382,3.0737l-5.5667,3.2138A5.9171,5.9171,0,0,1,1279.306,1197.7075Z" transform="translate(-25)" fill="#06033e"/><path d="M1305.312,1212.7222l-16.9947-9.8122c-1.3649-.7877-1.1938-2.164.382-3.0737l5.5667-3.2138a5.918,5.918,0,0,1,5.3238-.2206l16.9947,9.8119c1.3645.788,1.1934,2.164-.382,3.0736l-5.5667,3.2142A5.9177,5.9177,0,0,1,1305.312,1212.7222Z" transform="translate(-25)" fill="#06033e"/><path d="M1331.318,1227.7366l-16.9951-9.8119c-1.3645-.788-1.1934-2.164.3823-3.0737l5.5668-3.2138a5.916,5.916,0,0,1,5.3234-.2209l16.9951,9.8122c1.3645.7876,1.1934,2.164-.3823,3.0737l-5.5664,3.2138A5.9171,5.9171,0,0,1,1331.318,1227.7366Z" transform="translate(-25)" fill="#06033e"/><path d="M1357.324,1242.7513l-16.9951-9.8122c-1.3645-.7877-1.1934-2.164.3823-3.0737l5.5668-3.2138a5.9159,5.9159,0,0,1,5.3234-.2206l16.9951,9.8118c1.3645.7881,1.1934,2.1641-.3823,3.0737l-5.5668,3.2142A5.9171,5.9171,0,0,1,1357.324,1242.7513Z" transform="translate(-25)" fill="#06033e"/><path d="M1502.5112,1326.5751l-16.9951-9.8122c-1.3645-.7877-1.1933-2.164.3823-3.0737l5.5664-3.2138a5.9177,5.9177,0,0,1,5.3238-.2206l16.9951,9.8118c1.3645.7881,1.1934,2.1641-.3823,3.0737l-5.5667,3.2142A5.9174,5.9174,0,0,1,1502.5112,1326.5751Z" transform="translate(-25)" fill="#06033e"/><path d="M1528.5168,1341.59l-16.9947-9.8119c-1.3645-.788-1.1934-2.164.382-3.0737l5.5667-3.2138a5.9168,5.9168,0,0,1,5.3238-.2209l16.9947,9.8121c1.3649.7877,1.1938,2.1641-.3819,3.0737l-5.5668,3.2138A5.9167,5.9167,0,0,1,1528.5168,1341.59Z" transform="translate(-25)" fill="#06033e"/><path d="M1554.5228,1356.6042l-16.9947-9.8122c-1.3645-.7877-1.1934-2.164.382-3.0737l5.5667-3.2138a5.9177,5.9177,0,0,1,5.3238-.2206l16.9948,9.8118c1.3644.788,1.1933,2.164-.3821,3.0737l-5.5667,3.2142A5.918,5.918,0,0,1,1554.5228,1356.6042Z" transform="translate(-25)" fill="#06033e"/><path d="M1580.5288,1371.6185l-16.9947-9.8118c-1.3649-.788-1.1938-2.164.382-3.0737l5.5667-3.2138a5.9171,5.9171,0,0,1,5.3238-.221l16.9947,9.8122c1.3645.7877,1.1934,2.1641-.3819,3.0737l-5.5668,3.2138A5.9164,5.9164,0,0,1,1580.5288,1371.6185Z" transform="translate(-25)" fill="#06033e"/><path d="M1322.9619,1253.9207l-16.9947-9.8122c-1.3644-.7877-1.1933-2.164.382-3.0737l16.8393-9.7219a5.9168,5.9168,0,0,1,5.3238-.2207l16.9947,9.8119c1.3645.788,1.1934,2.164-.382,3.0737l-16.8392,9.7219A5.9171,5.9171,0,0,1,1322.9619,1253.9207Z" transform="translate(-25)" fill="#06033e"/><path d="M1349.2074,1269.0734l-16.9951-9.8122c-1.3645-.7877-1.1934-2.164.3823-3.0737l16.8393-9.7219a5.9158,5.9158,0,0,1,5.3235-.2206l16.995,9.8118c1.3646.788,1.1934,2.164-.3823,3.0737l-16.8389,9.7219A5.9165,5.9165,0,0,1,1349.2074,1269.0734Z" transform="translate(-25)" fill="#06033e"/><path d="M1375.4528,1284.2261l-16.995-9.8122c-1.3646-.7876-1.1934-2.164.3823-3.0736l16.8389-9.722a5.9171,5.9171,0,0,1,5.3238-.2206l16.9951,9.8119c1.3645.788,1.1933,2.164-.3824,3.0736l-16.8392,9.7223A5.9171,5.9171,0,0,1,1375.4528,1284.2261Z" transform="translate(-25)" fill="#06033e"/><path d="M1401.6979,1299.3789l-16.9947-9.8122c-1.3645-.7877-1.1934-2.164.382-3.0737l16.8392-9.7219a5.9168,5.9168,0,0,1,5.3238-.2207l16.9948,9.8119c1.3648.788,1.1937,2.164-.382,3.0737l-16.8393,9.7223A5.918,5.918,0,0,1,1401.6979,1299.3789Z" transform="translate(-25)" fill="#06033e"/><path d="M1427.9433,1314.5316l-16.9951-9.8122c-1.3644-.7877-1.1933-2.164.3824-3.0737l16.8393-9.7219a5.9156,5.9156,0,0,1,5.3234-.2206l16.9951,9.8118c1.3645.7881,1.1934,2.1641-.3824,3.0737l-16.8389,9.7223A5.9177,5.9177,0,0,1,1427.9433,1314.5316Z" transform="translate(-25)" fill="#06033e"/><path d="M1454.1888,1329.6843l-16.9951-9.8122c-1.3645-.7876-1.1934-2.164.3823-3.0736l16.8393-9.722a5.9162,5.9162,0,0,1,5.3234-.2206l16.9951,9.8119c1.3645.788,1.1934,2.164-.3823,3.0737l-16.8393,9.7222A5.9168,5.9168,0,0,1,1454.1888,1329.6843Z" transform="translate(-25)" fill="#06033e"/><path d="M1480.4338,1344.8371l-16.9947-9.8122c-1.3645-.7877-1.1934-2.1637.382-3.0737l16.8393-9.7219a5.9168,5.9168,0,0,1,5.3238-.2207l16.9947,9.8119c1.3648.788,1.1937,2.164-.382,3.0737l-16.8393,9.7223A5.918,5.918,0,0,1,1480.4338,1344.8371Z" transform="translate(-25)" fill="#06033e"/><path d="M1506.6793,1359.99l-16.9948-9.8122c-1.3648-.7877-1.1937-2.1637.3821-3.0737l16.8392-9.7219a5.9158,5.9158,0,0,1,5.3235-.2206l16.995,9.8118c1.3645.7881,1.1934,2.1641-.3823,3.0737l-16.8389,9.7223A5.9177,5.9177,0,0,1,1506.6793,1359.99Z" transform="translate(-25)" fill="#06033e"/><path d="M1532.9247,1375.1425,1515.93,1365.33c-1.3645-.7877-1.1934-2.1637.3824-3.0737l16.8392-9.722a5.9164,5.9164,0,0,1,5.3235-.2206l16.9951,9.8119c1.3645.788,1.1933,2.164-.3824,3.0737l-16.8393,9.7222A5.9168,5.9168,0,0,1,1532.9247,1375.1425Z" transform="translate(-25)" fill="#06033e"/><path d="M1172.9134,1255.7912l-50.0518-28.8974c-1.3645-.7876-1.1937-2.164.382-3.0737l16.8393-9.7219a5.917,5.917,0,0,1,5.3238-.2206l50.0518,28.8974c1.3645.7877,1.1934,2.164-.3823,3.0737l-16.8393,9.7219A5.9158,5.9158,0,0,1,1172.9134,1255.7912Z" transform="translate(-25)" fill="#06033e"/><path d="M1495.3433,1441.9465l-50.0519-28.8974c-1.3645-.788-1.1933-2.164.3824-3.0737l16.8393-9.7222a5.9172,5.9172,0,0,1,5.3234-.2207l50.0519,28.8974c1.3645.7881,1.1934,2.1641-.382,3.0737l-16.8393,9.7223A5.9177,5.9177,0,0,1,1495.3433,1441.9465Z" transform="translate(-25)" fill="#06033e"/><path d="M1390.3846,1414.8193l-16.9948-9.8122c-1.3645-.7877-1.1933-2.1637.382-3.0733l20.06-11.5817a5.9164,5.9164,0,0,1,5.3238-.2206l16.9947,9.8118c1.3645.788,1.1934,2.164-.382,3.0737l-20.06,11.5817A5.9177,5.9177,0,0,1,1390.3846,1414.8193Z" transform="translate(-25)" fill="#06033e"/><path d="M1199.7907,1304.78l-27.18-15.6922c-1.3645-.7877-1.1934-2.1641.3823-3.0737l20.06-11.5814a5.9183,5.9183,0,0,1,5.3239-.2209l27.1794,15.6922c1.3649.788,1.1938,2.164-.3819,3.0737l-20.06,11.5817A5.9171,5.9171,0,0,1,1199.7907,1304.78Z" transform="translate(-25)" fill="#06033e"/><path d="M1365.0969,1400.2194l-27.1795-15.6923c-1.3648-.7877-1.1937-2.1637.382-3.0737l20.06-11.5813a5.9162,5.9162,0,0,1,5.3235-.2207l27.18,15.6919c1.3644.7881,1.1934,2.1641-.3824,3.0737l-20.06,11.5817A5.918,5.918,0,0,1,1365.0969,1400.2194Z" transform="translate(-25)" fill="#06033e"/><path d="M1237.6569,1326.642l-27.1795-15.6922c-1.3645-.7881-1.1934-2.1641.382-3.0737l20.06-11.5817a5.9177,5.9177,0,0,1,5.3238-.2206l27.18,15.6922c1.3645.7877,1.1934,2.164-.3823,3.0737l-20.06,11.5813A5.9178,5.9178,0,0,1,1237.6569,1326.642Z" transform="translate(-25)" fill="#06033e"/><path d="M1236.4273,1296.18l118.1694,68.2252c1.4663.8466,1.4663,2.2191,0,3.0657l-20.4559,11.81a5.8681,5.8681,0,0,1-5.31,0l-118.1695-68.2249Z" transform="translate(-25)" fill="#06033e"/><path d="M1463.7361,1442.293l18.9308,10.93c1.1184.6454.9779,1.7736-.3133,2.5191l-8.2062,4.738a4.8515,4.8515,0,0,1-4.3636.1809l-18.93-10.93c-1.1184-.6455-.9783-1.7737.3133-2.5192l8.2058-4.7375A4.8489,4.8489,0,0,1,1463.7361,1442.293Z" transform="translate(-25)" fill="#06033e"/><path d="M1437.2731,1427.0144l18.9308,10.93c1.1185.6458.978,1.7737-.3133,2.52l-8.2061,4.7376a4.85,4.85,0,0,1-4.3637.1809l-18.93-10.93c-1.1184-.6458-.9783-1.7737.3133-2.5195l8.2058-4.7376A4.85,4.85,0,0,1,1437.2731,1427.0144Z" transform="translate(-25)" fill="#06033e"/><path d="M1411.0277,1411.8617l18.9308,10.93c1.1185.6458.9783,1.7736-.3133,2.5195l-8.2058,4.7376a4.85,4.85,0,0,1-4.3636.1809l-18.9308-10.93c-1.1185-.6458-.9784-1.7737.3133-2.52l8.2058-4.7375A4.85,4.85,0,0,1,1411.0277,1411.8617Z" transform="translate(-25)" fill="#06033e"/><path d="M1451.7665,1418.6469l18.93,10.93c1.1188.6454.9783,1.7736-.313,2.5191l-8.2061,4.738a4.8515,4.8515,0,0,1-4.3636.1809l-18.93-10.93c-1.1188-.6458-.9783-1.774.313-2.52l8.2062-4.7376A4.849,4.849,0,0,1,1451.7665,1418.6469Z" transform="translate(-25)" fill="#06033e"/></g><g opacity="0.4"><path d="M1110.87,1253.4414l-16.995-9.8121c-1.3645-.7877-1.1934-2.1641.3823-3.0737l20.06-11.5814a5.9168,5.9168,0,0,1,5.3238-.2209l16.9947,9.8121c1.3649.7877,1.1937,2.1641-.382,3.0737l-20.06,11.5814A5.9162,5.9162,0,0,1,1110.87,1253.4414Z" transform="translate(-25)" fill="#06033e"/><path d="M1137.1151,1268.5942l-16.9947-9.8122c-1.3648-.7877-1.1937-2.164.382-3.0737l20.06-11.5813a5.9159,5.9159,0,0,1,5.3235-.221l16.9951,9.8122c1.3645.7877,1.1933,2.164-.3824,3.0737l-20.06,11.5813A5.9168,5.9168,0,0,1,1137.1151,1268.5942Z" transform="translate(-25)" fill="#06033e"/><path d="M1163.3606,1283.7469l-16.9951-9.8122c-1.3645-.7877-1.1934-2.164.3823-3.0737l20.06-11.5813a5.916,5.916,0,0,1,5.3234-.221l16.9951,9.8122c1.3645.7877,1.1934,2.164-.3823,3.0737l-20.06,11.5813A5.9165,5.9165,0,0,1,1163.3606,1283.7469Z" transform="translate(-25)" fill="#06033e"/><path d="M1199.6593,1271.2329l-16.995-9.8118c-1.3645-.7877-1.1934-2.1641.3823-3.0737l16.8389-9.722a5.9183,5.9183,0,0,1,5.3239-.2209l16.995,9.8122c1.3645.7876,1.1934,2.164-.3823,3.0737l-16.8393,9.7219A5.9161,5.9161,0,0,1,1199.6593,1271.2329Z" transform="translate(-25)" fill="#06033e"/><path d="M1225.9045,1286.3856l-16.9948-9.8118c-1.3648-.7877-1.1937-2.164.382-3.0737l16.8393-9.7219a5.9178,5.9178,0,0,1,5.3238-.221l16.9947,9.8122c1.3645.7877,1.1934,2.164-.382,3.0737l-16.8393,9.7219A5.9162,5.9162,0,0,1,1225.9045,1286.3856Z" transform="translate(-25)" fill="#06033e"/><path d="M1252.15,1301.5387l-16.9951-9.8122c-1.3645-.7877-1.1934-2.164.3823-3.0737l16.8393-9.7219a5.9174,5.9174,0,0,1,5.3235-.221l16.995,9.8122c1.3645.7877,1.1934,2.1641-.3823,3.0737l-16.8393,9.722A5.9172,5.9172,0,0,1,1252.15,1301.5387Z" transform="translate(-25)" fill="#06033e"/><path d="M1278.3953,1316.6915l-16.9951-9.8122c-1.3645-.7877-1.1933-2.1641.3824-3.0737l16.8389-9.722a5.9171,5.9171,0,0,1,5.3238-.2206l16.9951,9.8119c1.3645.7876,1.1933,2.164-.3824,3.0737l-16.8392,9.7219A5.9175,5.9175,0,0,1,1278.3953,1316.6915Z" transform="translate(-25)" fill="#06033e"/><path d="M1304.64,1331.8442l-16.9948-9.8122c-1.3648-.7877-1.1937-2.164.382-3.0737l16.8393-9.7219a5.9164,5.9164,0,0,1,5.3238-.2206l16.9947,9.8118c1.3645.788,1.1934,2.164-.3819,3.0737l-16.8393,9.7219A5.9168,5.9168,0,0,1,1304.64,1331.8442Z" transform="translate(-25)" fill="#06033e"/><path d="M1330.8858,1346.9969l-16.9951-9.8122c-1.3645-.7876-1.1933-2.164.3824-3.0737l16.8392-9.7219a5.9161,5.9161,0,0,1,5.3235-.2206l16.9951,9.8118c1.3645.7881,1.1933,2.1641-.3823,3.0737l-16.839,9.722A5.9168,5.9168,0,0,1,1330.8858,1346.9969Z" transform="translate(-25)" fill="#06033e"/><path d="M1357.1312,1362.15l-16.995-9.8122c-1.3645-.7877-1.1934-2.1641.3823-3.0737l16.8389-9.722a5.9171,5.9171,0,0,1,5.3238-.2206l16.9951,9.8119c1.3645.788,1.1934,2.164-.3823,3.0737l-16.8393,9.7219A5.9165,5.9165,0,0,1,1357.1312,1362.15Z" transform="translate(-25)" fill="#06033e"/><path d="M1383.3763,1377.3024l-16.9947-9.8122c-1.3645-.7877-1.1934-2.164.382-3.0737l16.8393-9.7219a5.9164,5.9164,0,0,1,5.3238-.2206l16.9947,9.8118c1.3645.788,1.1934,2.164-.382,3.0737l-16.8393,9.7223A5.918,5.918,0,0,1,1383.3763,1377.3024Z" transform="translate(-25)" fill="#06033e"/><path d="M1409.6217,1392.4551l-16.995-9.8122c-1.3645-.7876-1.1934-2.164.3823-3.0737l16.8393-9.7219a5.9159,5.9159,0,0,1,5.3234-.2206l16.9951,9.8118c1.3646.7881,1.1934,2.1641-.3823,3.0737l-16.839,9.7223A5.9177,5.9177,0,0,1,1409.6217,1392.4551Z" transform="translate(-25)" fill="#06033e"/><path d="M1435.8672,1407.6079l-16.9951-9.8122c-1.3645-.7877-1.1934-2.1641.3823-3.0737l16.839-9.722a5.9171,5.9171,0,0,1,5.3238-.2206l16.995,9.8119c1.3645.788,1.1934,2.164-.3823,3.0737l-16.8393,9.7222A5.9172,5.9172,0,0,1,1435.8672,1407.6079Z" transform="translate(-25)" fill="#06033e"/><path d="M1238.33,1264.0591l-16.9947-9.8119c-1.3645-.788-1.1934-2.164.382-3.0736l16.8392-9.7223a5.9179,5.9179,0,0,1,5.3239-.2206l16.9947,9.8122c1.3645.7876,1.1934,2.164-.382,3.0736l-16.8393,9.722A5.9171,5.9171,0,0,1,1238.33,1264.0591Z" transform="translate(-25)" fill="#06033e"/><path d="M1211.6931,1248.68l-16.9951-9.8119c-1.3645-.788-1.1934-2.164.3824-3.0737l16.8389-9.7223a5.918,5.918,0,0,1,5.3238-.2206l16.9951,9.8122c1.3644.7877,1.1933,2.1641-.3824,3.0737l-16.8393,9.7219A5.9159,5.9159,0,0,1,1211.6931,1248.68Z" transform="translate(-25)" fill="#06033e"/><path d="M1185.0123,1233.2761l-36.6027-21.1324c-1.3645-.7877-1.1934-2.1641.3824-3.0737l16.8389-9.722a5.9181,5.9181,0,0,1,5.3238-.2209l36.6027,21.1328c1.3645.7877,1.1934,2.164-.382,3.0737l-16.8393,9.7219A5.9164,5.9164,0,0,1,1185.0123,1233.2761Z" transform="translate(-25)" fill="#06033e"/><path d="M1203.6619,1214.5429l-29.7039-17.1494c-1.3648-.7881-1.1937-2.1641.382-3.0737l16.8392-9.7223a5.9177,5.9177,0,0,1,5.3238-.2206l29.704,17.15c1.3644.7877,1.1933,2.164-.382,3.0737l-16.8393,9.7219A5.9164,5.9164,0,0,1,1203.6619,1214.5429Z" transform="translate(-25)" fill="#06033e"/><path d="M1264.5753,1279.2118,1247.58,1269.4c-1.3645-.788-1.1934-2.164.3823-3.0737l16.8393-9.7223a5.9169,5.9169,0,0,1,5.3234-.2206l16.9951,9.8122c1.3645.7877,1.1934,2.164-.3823,3.0737l-16.839,9.7219A5.9164,5.9164,0,0,1,1264.5753,1279.2118Z" transform="translate(-25)" fill="#06033e"/><path d="M1290.8208,1294.3646l-16.9951-9.8119c-1.3645-.788-1.1934-2.164.3823-3.0737l16.839-9.7223a5.918,5.918,0,0,1,5.3238-.2206l16.995,9.8122c1.3645.7877,1.1934,2.164-.3823,3.0737l-16.8393,9.7219A5.9159,5.9159,0,0,1,1290.8208,1294.3646Z" transform="translate(-25)" fill="#06033e"/><path d="M1317.0658,1309.5173l-16.9947-9.8119c-1.3645-.788-1.1933-2.164.382-3.0736l16.8393-9.722a5.9168,5.9168,0,0,1,5.3238-.2209l16.9947,9.8122c1.3646.7876,1.1934,2.164-.382,3.0736l-16.8392,9.722A5.9173,5.9173,0,0,1,1317.0658,1309.5173Z" transform="translate(-25)" fill="#06033e"/><path d="M1343.3113,1324.67l-16.9951-9.8118c-1.3645-.788-1.1934-2.164.3823-3.0737l16.8393-9.7219a5.9159,5.9159,0,0,1,5.3235-.221l16.995,9.8122c1.3645.7877,1.1934,2.164-.3823,3.0737l-16.8389,9.7219A5.9164,5.9164,0,0,1,1343.3113,1324.67Z" transform="translate(-25)" fill="#06033e"/><path d="M1369.5567,1339.8228l-16.9951-9.8119c-1.3645-.788-1.1933-2.164.3824-3.0737l16.8392-9.7219a5.9162,5.9162,0,0,1,5.3235-.221l16.9951,9.8122c1.3645.7877,1.1933,2.1641-.3824,3.0737l-16.8392,9.7219A5.9161,5.9161,0,0,1,1369.5567,1339.8228Z" transform="translate(-25)" fill="#06033e"/><path d="M1395.8018,1354.9755l-16.9947-9.8118c-1.3645-.7877-1.1934-2.1641.382-3.0737l16.8392-9.722a5.9181,5.9181,0,0,1,5.3238-.2209l16.9948,9.8122c1.3648.7876,1.1937,2.164-.382,3.0737l-16.8393,9.7219A5.917,5.917,0,0,1,1395.8018,1354.9755Z" transform="translate(-25)" fill="#06033e"/><path d="M1422.0473,1370.1282l-16.9952-9.8118c-1.3645-.7877-1.1933-2.164.3824-3.0737l16.8393-9.7219a5.9169,5.9169,0,0,1,5.3234-.221l16.9951,9.8122c1.3645.7877,1.1934,2.164-.3823,3.0737l-16.839,9.7219A5.9162,5.9162,0,0,1,1422.0473,1370.1282Z" transform="translate(-25)" fill="#06033e"/><path d="M1448.2926,1385.2813l-16.995-9.8122c-1.3645-.7877-1.1934-2.164.3823-3.0737l16.8393-9.7219a5.9172,5.9172,0,0,1,5.3234-.221l16.9951,9.8122c1.3645.7877,1.1934,2.1641-.3823,3.0737l-16.8393,9.7219A5.9171,5.9171,0,0,1,1448.2926,1385.2813Z" transform="translate(-25)" fill="#06033e"/><path d="M1474.5381,1400.434l-16.9951-9.8121c-1.3645-.7877-1.1933-2.1641.3823-3.0737l16.839-9.722a5.9171,5.9171,0,0,1,5.3238-.2206l16.995,9.8119c1.3645.7876,1.1934,2.164-.3823,3.0737l-16.8392,9.7219A5.9175,5.9175,0,0,1,1474.5381,1400.434Z" transform="translate(-25)" fill="#06033e"/><path d="M1521.1963,1427.372l-37.0816-21.4089c-1.3645-.788-1.1934-2.164.3823-3.0737l16.8393-9.7222a5.9168,5.9168,0,0,1,5.3234-.2206l37.0816,21.4092c1.3645.7876,1.1934,2.1636-.3823,3.0737l-16.8389,9.7219A5.9168,5.9168,0,0,1,1521.1963,1427.372Z" transform="translate(-25)" fill="#06033e"/><path d="M1572.2927,1397.8716l-31.2981-18.07c-1.3649-.788-1.1938-2.164.382-3.0737l16.8392-9.7223a5.918,5.918,0,0,1,5.3238-.2206l31.2981,18.07c1.3645.788,1.1934,2.164-.3823,3.0737l-16.8393,9.7222A5.9168,5.9168,0,0,1,1572.2927,1397.8716Z" transform="translate(-25)" fill="#06033e"/><path d="M1310.5365,1276.2472l-16.9948-9.8122c-1.3648-.7877-1.1937-2.1637.3821-3.0737l16.8392-9.7219a5.9169,5.9169,0,0,1,5.3239-.2206l16.9946,9.8118c1.3645.7881,1.1934,2.1641-.3819,3.0737l-16.8393,9.7223A5.9177,5.9177,0,0,1,1310.5365,1276.2472Z" transform="translate(-25)" fill="#06033e"/><path d="M1283.6382,1260.7174l-16.9947-9.8119c-1.3645-.788-1.1934-2.164.382-3.0737l16.8393-9.7222a5.918,5.918,0,0,1,5.3238-.2207l16.9947,9.8122c1.3645.7877,1.1934,2.1641-.382,3.0737l-16.8393,9.722A5.9171,5.9171,0,0,1,1283.6382,1260.7174Z" transform="translate(-25)" fill="#06033e"/><path d="M1256.74,1245.1879l-16.9947-9.8122c-1.3645-.7877-1.1934-2.1637.382-3.0737l16.8393-9.7219a5.9168,5.9168,0,0,1,5.3238-.2207l16.9947,9.8119c1.3648.788,1.1937,2.164-.382,3.0737l-16.8393,9.7223A5.918,5.918,0,0,1,1256.74,1245.1879Z" transform="translate(-25)" fill="#06033e"/><path d="M1229.8421,1229.658l-16.995-9.8118c-1.3645-.788-1.1934-2.164.3823-3.0737l16.8389-9.7223a5.918,5.918,0,0,1,5.3238-.2206l16.9951,9.8122c1.3645.7877,1.1934,2.1637-.3823,3.0737l-16.8393,9.7219A5.9158,5.9158,0,0,1,1229.8421,1229.658Z" transform="translate(-25)" fill="#06033e"/><path d="M1336.7819,1291.4l-16.9951-9.8122c-1.3645-.7877-1.1933-2.1637.3824-3.0734l16.8392-9.7223a5.9164,5.9164,0,0,1,5.3235-.2206l16.9951,9.8119c1.3645.788,1.1933,2.164-.3824,3.0737l-16.8392,9.7222A5.9174,5.9174,0,0,1,1336.7819,1291.4Z" transform="translate(-25)" fill="#06033e"/><path d="M1363.0273,1306.5527l-16.995-9.8122c-1.3645-.7877-1.1934-2.1637.3823-3.0734l16.839-9.7222a5.9162,5.9162,0,0,1,5.3237-.2206l16.9951,9.8118c1.3645.788,1.1934,2.164-.3823,3.0737l-16.8393,9.7223A5.9174,5.9174,0,0,1,1363.0273,1306.5527Z" transform="translate(-25)" fill="#06033e"/><path d="M1389.2724,1321.7054l-16.9947-9.8122c-1.3645-.7877-1.1934-2.1637.382-3.0733l16.8392-9.7223a5.917,5.917,0,0,1,5.3239-.2206l16.9947,9.8118c1.3645.7881,1.1933,2.1641-.382,3.0737l-16.8393,9.7223A5.9177,5.9177,0,0,1,1389.2724,1321.7054Z" transform="translate(-25)" fill="#06033e"/><path d="M1415.5178,1336.8582l-16.995-9.8122c-1.3645-.7877-1.1934-2.1637.3823-3.0734l16.8393-9.7223a5.9174,5.9174,0,0,1,5.3235-.2206l16.995,9.8119c1.3645.788,1.1934,2.164-.3823,3.0737l-16.839,9.7222A5.918,5.918,0,0,1,1415.5178,1336.8582Z" transform="translate(-25)" fill="#06033e"/><path d="M1441.7633,1352.0109l-16.9951-9.8122c-1.3645-.7877-1.1934-2.1637.3823-3.0733l16.839-9.7223a5.9177,5.9177,0,0,1,5.3238-.2206l16.995,9.8118c1.3646.788,1.1934,2.164-.3823,3.0737l-16.8393,9.7223A5.9172,5.9172,0,0,1,1441.7633,1352.0109Z" transform="translate(-25)" fill="#06033e"/><path d="M1468.0083,1367.1636l-16.9946-9.8122c-1.3646-.7876-1.1934-2.1636.3819-3.0733l16.8393-9.7223a5.9177,5.9177,0,0,1,5.3238-.2206l16.9947,9.8122c1.3645.7877,1.1934,2.1637-.382,3.0733l-16.8392,9.7223A5.9179,5.9179,0,0,1,1468.0083,1367.1636Z" transform="translate(-25)" fill="#06033e"/><path d="M1494.2538,1382.3164l-16.9951-9.8122c-1.3645-.7877-1.1934-2.1637.3823-3.0734l16.8393-9.7223a5.9174,5.9174,0,0,1,5.3235-.2206l16.9951,9.8122c1.3644.7877,1.1933,2.1637-.3824,3.0734l-16.8389,9.7222A5.918,5.918,0,0,1,1494.2538,1382.3164Z" transform="translate(-25)" fill="#06033e"/><path d="M1520.4992,1397.4691l-16.9951-9.8122c-1.3644-.7877-1.1933-2.1637.3824-3.0733l16.8392-9.7223a5.917,5.917,0,0,1,5.3235-.2206l16.9951,9.8122c1.3645.7876,1.1933,2.1636-.3824,3.0733l-16.8392,9.7223A5.9174,5.9174,0,0,1,1520.4992,1397.4691Z" transform="translate(-25)" fill="#06033e"/><path d="M1546.7443,1412.6218,1529.75,1402.81c-1.3645-.788-1.1934-2.164.382-3.0737l16.8392-9.7223a5.9177,5.9177,0,0,1,5.3238-.2206l16.9948,9.8122c1.3648.7877,1.1937,2.1637-.382,3.0733l-16.8393,9.7223A5.9177,5.9177,0,0,1,1546.7443,1412.6218Z" transform="translate(-25)" fill="#06033e"/><path d="M1296.7169,1238.7679l-16.9951-9.8122c-1.3645-.7876-1.1934-2.164.3823-3.0736l16.839-9.722a5.9171,5.9171,0,0,1,5.3238-.2206l16.9951,9.8119c1.3644.788,1.1933,2.164-.3824,3.0736l-16.8393,9.722A5.9172,5.9172,0,0,1,1296.7169,1238.7679Z" transform="translate(-25)" fill="#06033e"/><path d="M1270.6021,1223.6905l-16.995-9.8122c-1.3645-.7877-1.1934-2.1637.3823-3.0734l16.8389-9.7222a5.9166,5.9166,0,0,1,5.3239-.2206l16.995,9.8118c1.3645.788,1.1934,2.164-.3823,3.0737l-16.8393,9.7223A5.9174,5.9174,0,0,1,1270.6021,1223.6905Z" transform="translate(-25)" fill="#06033e"/><path d="M1244.4874,1208.613l-16.9951-9.8118c-1.3645-.788-1.1933-2.164.3824-3.0737l16.8389-9.7223a5.918,5.918,0,0,1,5.3238-.2206l16.9951,9.8122c1.3645.7877,1.1933,2.1637-.3824,3.0733l-16.8392,9.7223A5.9158,5.9158,0,0,1,1244.4874,1208.613Z" transform="translate(-25)" fill="#06033e"/><path d="M1218.3727,1193.5356l-16.9951-9.8119c-1.3645-.788-1.1934-2.164.3823-3.0737l16.839-9.7219a5.9168,5.9168,0,0,1,5.3238-.2209l16.9947,9.8121c1.3648.7877,1.1938,2.1641-.382,3.0737l-16.8393,9.722A5.9162,5.9162,0,0,1,1218.3727,1193.5356Z" transform="translate(-25)" fill="#06033e"/><path d="M1245.2263,1178.0315l-16.9947-9.8118c-1.3649-.788-1.1938-2.164.382-3.0737l5.5667-3.2138a5.9178,5.9178,0,0,1,5.3238-.221l16.9947,9.8122c1.3645.7877,1.1934,2.164-.382,3.0737l-5.5667,3.2138A5.9164,5.9164,0,0,1,1245.2263,1178.0315Z" transform="translate(-25)" fill="#06033e"/><path d="M1279.306,1197.7075l-16.9947-9.8118c-1.3645-.7881-1.1934-2.1641.382-3.0737l5.5667-3.2138a5.9178,5.9178,0,0,1,5.3238-.221l16.9947,9.8122c1.3645.7877,1.1934,2.164-.382,3.0737l-5.5667,3.2138A5.9171,5.9171,0,0,1,1279.306,1197.7075Z" transform="translate(-25)" fill="#06033e"/><path d="M1305.312,1212.7222l-16.9947-9.8122c-1.3649-.7877-1.1938-2.164.382-3.0737l5.5667-3.2138a5.918,5.918,0,0,1,5.3238-.2206l16.9947,9.8119c1.3645.788,1.1934,2.164-.382,3.0736l-5.5667,3.2142A5.9177,5.9177,0,0,1,1305.312,1212.7222Z" transform="translate(-25)" fill="#06033e"/><path d="M1331.318,1227.7366l-16.9951-9.8119c-1.3645-.788-1.1934-2.164.3823-3.0737l5.5668-3.2138a5.916,5.916,0,0,1,5.3234-.2209l16.9951,9.8122c1.3645.7876,1.1934,2.164-.3823,3.0737l-5.5664,3.2138A5.9171,5.9171,0,0,1,1331.318,1227.7366Z" transform="translate(-25)" fill="#06033e"/><path d="M1357.324,1242.7513l-16.9951-9.8122c-1.3645-.7877-1.1934-2.164.3823-3.0737l5.5668-3.2138a5.9159,5.9159,0,0,1,5.3234-.2206l16.9951,9.8118c1.3645.7881,1.1934,2.1641-.3823,3.0737l-5.5668,3.2142A5.9171,5.9171,0,0,1,1357.324,1242.7513Z" transform="translate(-25)" fill="#06033e"/><path d="M1502.5112,1326.5751l-16.9951-9.8122c-1.3645-.7877-1.1933-2.164.3823-3.0737l5.5664-3.2138a5.9177,5.9177,0,0,1,5.3238-.2206l16.9951,9.8118c1.3645.7881,1.1934,2.1641-.3823,3.0737l-5.5667,3.2142A5.9174,5.9174,0,0,1,1502.5112,1326.5751Z" transform="translate(-25)" fill="#06033e"/><path d="M1528.5168,1341.59l-16.9947-9.8119c-1.3645-.788-1.1934-2.164.382-3.0737l5.5667-3.2138a5.9168,5.9168,0,0,1,5.3238-.2209l16.9947,9.8121c1.3649.7877,1.1938,2.1641-.3819,3.0737l-5.5668,3.2138A5.9167,5.9167,0,0,1,1528.5168,1341.59Z" transform="translate(-25)" fill="#06033e"/><path d="M1554.5228,1356.6042l-16.9947-9.8122c-1.3645-.7877-1.1934-2.164.382-3.0737l5.5667-3.2138a5.9177,5.9177,0,0,1,5.3238-.2206l16.9948,9.8118c1.3644.788,1.1933,2.164-.3821,3.0737l-5.5667,3.2142A5.918,5.918,0,0,1,1554.5228,1356.6042Z" transform="translate(-25)" fill="#06033e"/><path d="M1580.5288,1371.6185l-16.9947-9.8118c-1.3649-.788-1.1938-2.164.382-3.0737l5.5667-3.2138a5.9171,5.9171,0,0,1,5.3238-.221l16.9947,9.8122c1.3645.7877,1.1934,2.1641-.3819,3.0737l-5.5668,3.2138A5.9164,5.9164,0,0,1,1580.5288,1371.6185Z" transform="translate(-25)" fill="#06033e"/><path d="M1322.9619,1253.9207l-16.9947-9.8122c-1.3644-.7877-1.1933-2.164.382-3.0737l16.8393-9.7219a5.9168,5.9168,0,0,1,5.3238-.2207l16.9947,9.8119c1.3645.788,1.1934,2.164-.382,3.0737l-16.8392,9.7219A5.9171,5.9171,0,0,1,1322.9619,1253.9207Z" transform="translate(-25)" fill="#06033e"/><path d="M1349.2074,1269.0734l-16.9951-9.8122c-1.3645-.7877-1.1934-2.164.3823-3.0737l16.8393-9.7219a5.9158,5.9158,0,0,1,5.3235-.2206l16.995,9.8118c1.3646.788,1.1934,2.164-.3823,3.0737l-16.8389,9.7219A5.9165,5.9165,0,0,1,1349.2074,1269.0734Z" transform="translate(-25)" fill="#06033e"/><path d="M1375.4528,1284.2261l-16.995-9.8122c-1.3646-.7876-1.1934-2.164.3823-3.0736l16.8389-9.722a5.9171,5.9171,0,0,1,5.3238-.2206l16.9951,9.8119c1.3645.788,1.1933,2.164-.3824,3.0736l-16.8392,9.7223A5.9171,5.9171,0,0,1,1375.4528,1284.2261Z" transform="translate(-25)" fill="#06033e"/><path d="M1401.6979,1299.3789l-16.9947-9.8122c-1.3645-.7877-1.1934-2.164.382-3.0737l16.8392-9.7219a5.9168,5.9168,0,0,1,5.3238-.2207l16.9948,9.8119c1.3648.788,1.1937,2.164-.382,3.0737l-16.8393,9.7223A5.918,5.918,0,0,1,1401.6979,1299.3789Z" transform="translate(-25)" fill="#06033e"/><path d="M1427.9433,1314.5316l-16.9951-9.8122c-1.3644-.7877-1.1933-2.164.3824-3.0737l16.8393-9.7219a5.9156,5.9156,0,0,1,5.3234-.2206l16.9951,9.8118c1.3645.7881,1.1934,2.1641-.3824,3.0737l-16.8389,9.7223A5.9177,5.9177,0,0,1,1427.9433,1314.5316Z" transform="translate(-25)" fill="#06033e"/><path d="M1454.1888,1329.6843l-16.9951-9.8122c-1.3645-.7876-1.1934-2.164.3823-3.0736l16.8393-9.722a5.9162,5.9162,0,0,1,5.3234-.2206l16.9951,9.8119c1.3645.788,1.1934,2.164-.3823,3.0737l-16.8393,9.7222A5.9168,5.9168,0,0,1,1454.1888,1329.6843Z" transform="translate(-25)" fill="#06033e"/><path d="M1480.4338,1344.8371l-16.9947-9.8122c-1.3645-.7877-1.1934-2.1637.382-3.0737l16.8393-9.7219a5.9168,5.9168,0,0,1,5.3238-.2207l16.9947,9.8119c1.3648.788,1.1937,2.164-.382,3.0737l-16.8393,9.7223A5.918,5.918,0,0,1,1480.4338,1344.8371Z" transform="translate(-25)" fill="#06033e"/><path d="M1506.6793,1359.99l-16.9948-9.8122c-1.3648-.7877-1.1937-2.1637.3821-3.0737l16.8392-9.7219a5.9158,5.9158,0,0,1,5.3235-.2206l16.995,9.8118c1.3645.7881,1.1934,2.1641-.3823,3.0737l-16.8389,9.7223A5.9177,5.9177,0,0,1,1506.6793,1359.99Z" transform="translate(-25)" fill="#06033e"/><path d="M1532.9247,1375.1425,1515.93,1365.33c-1.3645-.7877-1.1934-2.1637.3824-3.0737l16.8392-9.722a5.9164,5.9164,0,0,1,5.3235-.2206l16.9951,9.8119c1.3645.788,1.1933,2.164-.3824,3.0737l-16.8393,9.7222A5.9168,5.9168,0,0,1,1532.9247,1375.1425Z" transform="translate(-25)" fill="#06033e"/><path d="M1172.9134,1255.7912l-50.0518-28.8974c-1.3645-.7876-1.1937-2.164.382-3.0737l16.8393-9.7219a5.917,5.917,0,0,1,5.3238-.2206l50.0518,28.8974c1.3645.7877,1.1934,2.164-.3823,3.0737l-16.8393,9.7219A5.9158,5.9158,0,0,1,1172.9134,1255.7912Z" transform="translate(-25)" fill="#06033e"/><path d="M1495.3433,1441.9465l-50.0519-28.8974c-1.3645-.788-1.1933-2.164.3824-3.0737l16.8393-9.7222a5.9172,5.9172,0,0,1,5.3234-.2207l50.0519,28.8974c1.3645.7881,1.1934,2.1641-.382,3.0737l-16.8393,9.7223A5.9177,5.9177,0,0,1,1495.3433,1441.9465Z" transform="translate(-25)" fill="#06033e"/><path d="M1390.3846,1414.8193l-16.9948-9.8122c-1.3645-.7877-1.1933-2.1637.382-3.0733l20.06-11.5817a5.9164,5.9164,0,0,1,5.3238-.2206l16.9947,9.8118c1.3645.788,1.1934,2.164-.382,3.0737l-20.06,11.5817A5.9177,5.9177,0,0,1,1390.3846,1414.8193Z" transform="translate(-25)" fill="#06033e"/><path d="M1199.7907,1304.78l-27.18-15.6922c-1.3645-.7877-1.1934-2.1641.3823-3.0737l20.06-11.5814a5.9183,5.9183,0,0,1,5.3239-.2209l27.1794,15.6922c1.3649.788,1.1938,2.164-.3819,3.0737l-20.06,11.5817A5.9171,5.9171,0,0,1,1199.7907,1304.78Z" transform="translate(-25)" fill="#06033e"/><path d="M1365.0969,1400.2194l-27.1795-15.6923c-1.3648-.7877-1.1937-2.1637.382-3.0737l20.06-11.5813a5.9162,5.9162,0,0,1,5.3235-.2207l27.18,15.6919c1.3644.7881,1.1934,2.1641-.3824,3.0737l-20.06,11.5817A5.918,5.918,0,0,1,1365.0969,1400.2194Z" transform="translate(-25)" fill="#06033e"/><path d="M1237.6569,1326.642l-27.1795-15.6922c-1.3645-.7881-1.1934-2.1641.382-3.0737l20.06-11.5817a5.9177,5.9177,0,0,1,5.3238-.2206l27.18,15.6922c1.3645.7877,1.1934,2.164-.3823,3.0737l-20.06,11.5813A5.9178,5.9178,0,0,1,1237.6569,1326.642Z" transform="translate(-25)" fill="#06033e"/><path d="M1236.4273,1296.18l118.1694,68.2252c1.4663.8466,1.4663,2.2191,0,3.0657l-20.4559,11.81a5.8681,5.8681,0,0,1-5.31,0l-118.1695-68.2249Z" transform="translate(-25)" fill="#06033e"/><path d="M1463.7361,1442.293l18.9308,10.93c1.1184.6454.9779,1.7736-.3133,2.5191l-8.2062,4.738a4.8515,4.8515,0,0,1-4.3636.1809l-18.93-10.93c-1.1184-.6455-.9783-1.7737.3133-2.5192l8.2058-4.7375A4.8489,4.8489,0,0,1,1463.7361,1442.293Z" transform="translate(-25)" fill="#06033e"/><path d="M1437.2731,1427.0144l18.9308,10.93c1.1185.6458.978,1.7737-.3133,2.52l-8.2061,4.7376a4.85,4.85,0,0,1-4.3637.1809l-18.93-10.93c-1.1184-.6458-.9783-1.7737.3133-2.5195l8.2058-4.7376A4.85,4.85,0,0,1,1437.2731,1427.0144Z" transform="translate(-25)" fill="#06033e"/><path d="M1411.0277,1411.8617l18.9308,10.93c1.1185.6458.9783,1.7736-.3133,2.5195l-8.2058,4.7376a4.85,4.85,0,0,1-4.3636.1809l-18.9308-10.93c-1.1185-.6458-.9784-1.7737.3133-2.52l8.2058-4.7375A4.85,4.85,0,0,1,1411.0277,1411.8617Z" transform="translate(-25)" fill="#06033e"/><path d="M1451.7665,1418.6469l18.93,10.93c1.1188.6454.9783,1.7736-.313,2.5191l-8.2061,4.738a4.8515,4.8515,0,0,1-4.3636.1809l-18.93-10.93c-1.1188-.6458-.9783-1.774.313-2.52l8.2062-4.7376A4.849,4.849,0,0,1,1451.7665,1418.6469Z" transform="translate(-25)" fill="#06033e"/></g><path d="M1729.53,1387.9922l-501.4033-289.4853c-7.8845-4.5522-11.9993-15.6438-9.1912-24.7736l113.39-368.1575c2.8085-9.13,11.4768-12.8409,19.3612-8.2888L1853.09,986.7724c7.8845,4.5518,11.9993,15.6434,9.1908,24.7732l-113.39,368.1575C1746.0828,1388.8332,1737.4144,1392.544,1729.53,1387.9922Z" transform="translate(-25)" fill="url(#d)"/><path d="M1724.8018,1375.1l-486.3335-281.0185c-7.545-4.3559-11.4831-14.97-8.7956-23.7074l108.4065-351.956c2.6874-8.737,10.9828-12.2885,18.5282-7.9322l486.3335,281.0181c7.5451,4.3563,11.4831,14.9708,8.7955,23.7077L1743.33,1367.1671C1740.6425,1375.9044,1732.3471,1379.4556,1724.8018,1375.1Z" transform="translate(-25)" fill="url(#e)"/><path d="M1724.8018,1375.1l-486.3335-281.0185c-7.545-4.3559-11.4831-14.97-8.7956-23.7074l108.4065-351.956c2.6874-8.737,10.9828-12.2885,18.5282-7.9322l486.3335,281.0181c7.5451,4.3563,11.4831,14.9708,8.7955,23.7077L1743.33,1367.1671C1740.6425,1375.9044,1732.3471,1379.4556,1724.8018,1375.1Z" transform="translate(-25)" fill="#06033e" opacity="0.4"/><path d="M1724.8018,1375.1l-486.3335-281.0185c-7.545-4.3559-11.4831-14.97-8.7956-23.7074l108.4065-351.956c2.6874-8.737,10.9828-12.2885,18.5282-7.9322l486.3335,281.0181c7.5451,4.3563,11.4831,14.9708,8.7955,23.7077L1743.33,1367.1671C1740.6425,1375.9044,1732.3471,1379.4556,1724.8018,1375.1Z" transform="translate(-25)" fill="#06033e" opacity="0.4"/><path d="M1698.6738,1267.5423l-329.2224-190.0766c-5.1766-2.989-7.8788-10.2719-6.0348-16.2666l74.4522-241.7328c1.8441-5.9947,7.5356-8.4313,12.7127-5.4426L1779.8039,1004.1c5.177,2.989,7.8788,10.2719,6.0347,16.2663L1711.3865,1262.1C1709.5424,1268.0944,1703.8509,1270.531,1698.6738,1267.5423Z" transform="translate(-25)" fill="#06033e" opacity="0.5"/><path d="M1654.1919,1273.3767,1324.97,1083.3c-5.1771-2.989-7.8789-10.2715-6.0348-16.2663l74.4521-241.7331c1.8441-5.9947,7.5356-8.4313,12.7123-5.4423l329.2228,190.0766c5.1767,2.989,7.8785,10.2716,6.0348,16.2663l-74.4522,241.7331C1665.0605,1273.9291,1659.369,1276.3657,1654.1919,1273.3767Z" transform="translate(-25)" fill="url(#f)"/><g opacity="0.5"><path d="M1654.1919,1273.3767,1324.97,1083.3c-5.1771-2.989-7.8789-10.2715-6.0348-16.2663l74.4521-241.7331c1.8441-5.9947,7.5356-8.4313,12.7123-5.4423l329.2228,190.0766c5.1767,2.989,7.8785,10.2716,6.0348,16.2663l-74.4522,241.7331C1665.0605,1273.9291,1659.369,1276.3657,1654.1919,1273.3767Z" transform="translate(-25)" fill="#06033e"/></g><path d="M1735.3219,1009.935,1406.0991,819.8584a8.1973,8.1973,0,0,0-9.2636.3154,8.8694,8.8694,0,0,1,4.754,1.2178l329.2231,190.0766c5.176,2.9887,7.8778,10.2719,6.0341,16.266l-74.4515,241.733a9.94,9.94,0,0,1-3.45,5.1269c3.5313-.1052,6.6778-2.4965,7.959-6.66l74.4518-241.7331C1743.2007,1020.2066,1740.4989,1012.9237,1735.3219,1009.935Z" transform="translate(-25)" fill="#fff"/><path d="M1238.966,1470.7763a24.7632,24.7632,0,0,1-12.1986-2.859v.0032l-131.904-76.1527c-3.4954-2.0218-5.4186-4.9045-5.4186-8.1277-.0035-3.7373,2.6513-7.4133,7.2735-10.0816l67.8956-39.2028c8.2978-4.7857,20.4727-5.2551,27.7326-1.0689l131.9,76.1526c3.4957,2.0183,5.4186,4.9049,5.4221,8.1281,0,3.7369-2.6513,7.4129-7.2735,10.0812l-67.8991,39.2032A31.8065,31.8065,0,0,1,1238.966,1470.7763Zm-58.7568-136.492a28.2831,28.2831,0,0,0-13.6892,3.3727l-67.8956,39.2c-3.4139,1.9706-5.3743,4.4452-5.3743,6.7835,0,2.3111,1.9127,3.9,3.5194,4.8264l131.904,76.1558c5.9836,3.448,16.933,2.9646,23.9172-1.0721l67.8988-39.1993c3.4138-1.9709,5.3708-4.442,5.3708-6.7834,0-2.3111-1.9127-3.9008-3.5191-4.8265L1190.44,1336.5884A20.9391,20.9391,0,0,0,1180.2092,1334.2843Z" transform="translate(-25)" fill="#06033e" opacity="0.4"/><path d="M1486.2874,946.68l-20.3535-11.7511a5.3091,5.3091,0,0,1-2.2623-5.8529h0a3.0132,3.0132,0,0,1,4.5762-1.9043l20.3538,11.751a5.3081,5.3081,0,0,1,2.262,5.8529h0A3.0133,3.0133,0,0,1,1486.2874,946.68Z" transform="translate(-25)" fill="#fff"/><path d="M1534.7705,974.6714l-30.0124-17.3276a5.3085,5.3085,0,0,1-2.2619-5.8525h0a3.0132,3.0132,0,0,1,4.5762-1.9044l30.012,17.3272a5.3091,5.3091,0,0,1,2.2623,5.8529h0A3.0133,3.0133,0,0,1,1534.7705,974.6714Z" transform="translate(-25)" fill="#fff"/><path d="M1445.24,1037.2968l-20.3536-11.7514a5.3087,5.3087,0,0,1-2.2623-5.8525h0a3.0135,3.0135,0,0,1,4.5762-1.9048l20.3539,11.7515a5.3079,5.3079,0,0,1,2.262,5.8525h0A3.0134,3.0134,0,0,1,1445.24,1037.2968Z" transform="translate(-25)" fill="#fff"/><path d="M1488.4584,1062.2488l-30.012-17.3272a5.3085,5.3085,0,0,1-2.262-5.8529h0a3.0133,3.0133,0,0,1,4.5762-1.9043l30.012,17.3275a5.3077,5.3077,0,0,1,2.262,5.8526h0A3.0131,3.0131,0,0,1,1488.4584,1062.2488Z" transform="translate(-25)" fill="#fff"/><path d="M1425.3171,930.5313l-12.7147-7.3411a5.3087,5.3087,0,0,1-2.2623-5.8529h0a3.0133,3.0133,0,0,1,4.5762-1.9044l12.7151,7.3411a5.3079,5.3079,0,0,1,2.2619,5.8526h0A3.0134,3.0134,0,0,1,1425.3171,930.5313Z" transform="translate(-25)" fill="#fff"/><path d="M1463.5761,971.6726l-38.8486-22.4294a5.3076,5.3076,0,0,1-2.262-5.8525h0a3.0134,3.0134,0,0,1,4.5762-1.9047l38.8486,22.4293a5.3084,5.3084,0,0,1,2.262,5.8529h0A3.0133,3.0133,0,0,1,1463.5761,971.6726Z" transform="translate(-25)" fill="#fff"/><path d="M1427.745,989.0908,1415.03,981.75a5.3086,5.3086,0,0,1-2.2619-5.8529h0a3.0131,3.0131,0,0,1,4.5762-1.9043l12.7147,7.3407a5.3091,5.3091,0,0,1,2.2624,5.8529h0A3.0133,3.0133,0,0,1,1427.745,989.0908Z" transform="translate(-25)" fill="#fff"/><path d="M1493.1441,1103.0594l-33.96-19.607a5.3083,5.3083,0,0,1-2.2623-5.8525h0a3.0134,3.0134,0,0,1,4.5762-1.9047l33.96,19.6069a5.3087,5.3087,0,0,1,2.262,5.8529h0A3.0132,3.0132,0,0,1,1493.1441,1103.0594Z" transform="translate(-25)" fill="#fff"/><path d="M1413.4943,1018.9683l-8.1612-4.7118a5.3091,5.3091,0,0,1-2.2624-5.8529h0a3.0134,3.0134,0,0,1,4.5763-1.9044l8.1615,4.7118a5.3087,5.3087,0,0,1,2.262,5.8529h0A3.0132,3.0132,0,0,1,1413.4943,1018.9683Z" transform="translate(-25)" fill="#fff"/><path d="M1405.7712,1052.6147l-10.1356-5.8518a5.3078,5.3078,0,0,1-2.262-5.8525v0a3.0132,3.0132,0,0,1,4.5762-1.9043l10.1356,5.8518a5.3078,5.3078,0,0,1,2.262,5.8525h0A3.0134,3.0134,0,0,1,1405.7712,1052.6147Z" transform="translate(-25)" fill="#fff"/><path d="M1445.2008,1075.3794l-26.7218-15.4277a5.3087,5.3087,0,0,1-2.262-5.8529h0a3.0133,3.0133,0,0,1,4.5762-1.9044l26.7219,15.4277a5.3083,5.3083,0,0,1,2.2619,5.8529h0A3.0133,3.0133,0,0,1,1445.2008,1075.3794Z" transform="translate(-25)" fill="#fff"/><path d="M1410,1074.1087l-19.2128-11.0924a5.3088,5.3088,0,0,1-2.2623-5.8529h0a3.0133,3.0133,0,0,1,4.5762-1.9044l19.2131,11.0924a5.3085,5.3085,0,0,1,2.262,5.8529h0A3.0132,3.0132,0,0,1,1410,1074.1087Z" transform="translate(-25)" fill="#fff"/><path d="M1522.28,1119.9628l-12.339-7.124a5.3078,5.3078,0,0,1-2.262-5.8525h0a3.0134,3.0134,0,0,1,4.5762-1.9047l12.3387,7.1239a5.3086,5.3086,0,0,1,2.2623,5.8526h0A3.0135,3.0135,0,0,1,1522.28,1119.9628Z" transform="translate(-25)" fill="#fff"/><path d="M1475.042,1016.3978l-33.96-19.6073a5.3078,5.3078,0,0,1-2.2619-5.8525h0a3.0134,3.0134,0,0,1,4.5762-1.9047l33.96,19.6073a5.3085,5.3085,0,0,1,2.2624,5.8525h0A3.0135,3.0135,0,0,1,1475.042,1016.3978Z" transform="translate(-25)" fill="#fff"/><path d="M1479.0676,999.6694l-59.1886-34.1728a5.3087,5.3087,0,0,1-2.2623-5.8528h0a3.0134,3.0134,0,0,1,4.5762-1.9044l59.1889,34.1727a5.3079,5.3079,0,0,1,2.262,5.8526h0A3.0134,3.0134,0,0,1,1479.0676,999.6694Z" transform="translate(-25)" fill="#e8975b"/><path d="M1444.142,1017.61l-33.9605-19.6069a5.3079,5.3079,0,0,1-2.262-5.8526h0a3.0135,3.0135,0,0,1,4.5762-1.9047l33.96,19.607a5.3091,5.3091,0,0,1,2.2623,5.8529h0A3.0134,3.0134,0,0,1,1444.142,1017.61Z" transform="translate(-25)" fill="#e8975b"/><path d="M1500.8,1031.269l-12.3387-7.124a5.3087,5.3087,0,0,1-2.2623-5.8525h0a3.0135,3.0135,0,0,1,4.5762-1.9048l12.3391,7.124a5.3077,5.3077,0,0,1,2.2619,5.8525h0A3.0134,3.0134,0,0,1,1500.8,1031.269Z" transform="translate(-25)" fill="#e8975b"/><path d="M1626.31,1027.5219l-73.0684-42.1862a5.3091,5.3091,0,0,1-2.2624-5.8529h0a3.0134,3.0134,0,0,1,4.5762-1.9043l73.0689,42.1862a5.3078,5.3078,0,0,1,2.2619,5.8525h0A3.0134,3.0134,0,0,1,1626.31,1027.5219Z" transform="translate(-25)" fill="#e8975b"/><path d="M1441.3071,1054.0786l-40.8228-23.5691a5.3085,5.3085,0,0,1-2.2623-5.8525h0a3.0137,3.0137,0,0,1,4.5765-1.9047l40.8228,23.569a5.3087,5.3087,0,0,1,2.262,5.8529h0A3.0133,3.0133,0,0,1,1441.3071,1054.0786Z" transform="translate(-25)" fill="#f8359e"/><path d="M1447.4628,924.2644l-30.012-17.3276a5.3078,5.3078,0,0,1-2.262-5.8525h0a3.0134,3.0134,0,0,1,4.5762-1.9048l30.012,17.3276a5.3091,5.3091,0,0,1,2.2624,5.8529h0A3.0137,3.0137,0,0,1,1447.4628,924.2644Z" transform="translate(-25)" fill="#f8359e"/><path d="M1403.7235,1089.5378l-34.7593-20.0684a5.3087,5.3087,0,0,1-2.262-5.8526h0a3.0135,3.0135,0,0,1,4.5762-1.9047l34.7594,20.0684a5.3091,5.3091,0,0,1,2.2623,5.8529h0A3.0136,3.0136,0,0,1,1403.7235,1089.5378Z" transform="translate(-25)" fill="#e8975b"/><path d="M1634.5114,989.9429l-14.8771-8.59a3.879,3.879,0,0,1-1.6534-4.2779h0a2.2026,2.2026,0,0,1,3.3448-1.392l14.8771,8.5892a3.8807,3.8807,0,0,1,1.6534,4.2782h0A2.2026,2.2026,0,0,1,1634.5114,989.9429Z" transform="translate(-25)" fill="#fff"/><path d="M1662.8894,1006.327l-14.8773-8.59a3.88,3.88,0,0,1-1.6535-4.2779h0a2.2029,2.2029,0,0,1,3.3452-1.392l14.8771,8.5892a3.88,3.88,0,0,1,1.6534,4.2779h0A2.2026,2.2026,0,0,1,1662.8894,1006.327Z" transform="translate(-25)" fill="#fff"/><path d="M1691.2672,1022.7111l-14.8771-8.59a3.88,3.88,0,0,1-1.6534-4.2779h0a2.2025,2.2025,0,0,1,3.3449-1.392l14.877,8.5892a3.88,3.88,0,0,1,1.6538,4.2779h0A2.2029,2.2029,0,0,1,1691.2672,1022.7111Z" transform="translate(-25)" fill="#fff"/><path d="M1705.2157,1030.7744l-.4475-.2687a3.88,3.88,0,0,1-1.6534-4.2779h0a2.2025,2.2025,0,0,1,3.3449-1.392l.4475.2687a3.8792,3.8792,0,0,1,1.6534,4.2779h0A2.2025,2.2025,0,0,1,1705.2157,1030.7744Z" transform="translate(-25)" fill="#f8359e"/><path d="M937.3574,1204.8817a54.4314,54.4314,0,0,1-27.229-7.2735h0l-99.6614-57.5415a13.7957,13.7957,0,0,1,0-23.9005l99.6579-57.5383a54.6077,54.6077,0,0,1,54.4615,0l99.6613,57.5418a13.7955,13.7955,0,0,1,0,23.9L964.59,1197.6082A54.4363,54.4363,0,0,1,937.3574,1204.8817Zm-23.9887-12.8894a48.1329,48.1329,0,0,0,47.9808,0l99.658-57.5383a7.3155,7.3155,0,0,0,0-12.6684l-99.6614-57.5414a48.116,48.116,0,0,0-47.9809,0l-99.6583,57.5383a7.3154,7.3154,0,0,0,0,12.668Z" transform="translate(-25)" fill="#fff"/><ellipse cx="911.8536" cy="1129.4728" rx="68.4533" ry="39.5215" fill="#020230" opacity="0.6"/><path d="M1038.3254,847.7935H843.35l18.1351,211.1021h0c0,11.725,7.7474,23.45,23.2428,32.3949,30.99,17.8922,81.2338,17.8929,112.2224.0011,15.4954-8.9461,23.2418-20.671,23.2408-32.397Z" transform="translate(-25)" fill="url(#g)"/><path d="M1038.3254,847.7935H843.35l2.983,34.7294a75.8386,75.8386,0,0,0,18.071,16.2565c37.2569,24.7154,98.7319,29.4774,140.68,11.6793l-6.4879,154.4a30.3252,30.3252,0,0,1-6.9664,18.4094c-6.3151,7.4335-18.4844,16.1792-41.8743,21.1234,17.2411-1.12,33.9738-5.4656,47.1949-13.1,15.4954-8.9461,23.2418-20.671,23.2408-32.397l14.5431-169.2983h0Z" transform="translate(-25)" fill="#06033e" opacity="0.4"/><ellipse cx="915.838" cy="847.7937" rx="97.4879" ry="56.2847" fill="#06033e" opacity="0.4"/><ellipse cx="915.838" cy="827.9541" rx="83.9684" ry="48.4792" fill="#06033e" opacity="0.4"/><path d="M1044.1,845.1416l.01.0139-.0164-.1711c-.0077-.0962-.0205-.1928-.0293-.2893l-1.8713-18.9005-.0812.2123c-.8371-14.3062-10.69-28.47-29.6049-39.391-39.5819-22.8528-103.7573-22.8532-143.3382-.0014-19.3919,11.1965-29.2581,25.8007-29.6475,40.4738l-.0233-.0494-1.7831,16.8305c-.05.4381-.1067.8752-.14,1.3133l-.0289.2767.0185-.0122c-1.069,16.0342,8.9792,32.27,30.1824,44.5113,40.3679,23.3069,105.8182,23.3073,146.1865.0014C1035.27,877.64,1045.3187,861.2758,1044.1,845.1416Z" transform="translate(-25)" fill="url(#h)"/><ellipse cx="915.838" cy="827.9541" rx="83.9684" ry="48.4792" fill="url(#i)"/><ellipse cx="911.8536" cy="827.9541" rx="83.9685" ry="48.4791" fill="url(#j)"/><path d="M891.4231,800.8952c32.7908-18.9322,85.9571-18.9319,118.749.001.4175.2412.7675.5054,1.1753.75a67.0451,67.0451,0,0,0-11.1356-7.9716c-32.7922-18.9326-85.9586-18.9333-118.7494-.0007-32.3737,18.69-32.7229,48.826-1.1732,67.8091C859.2223,842.7,862.9129,817.3553,891.4231,800.8952Z" transform="translate(-25)" fill="#06033e" opacity="0.4"/><path d="M881.4617,802.0875c32.7922-18.9322,85.9579-18.9318,118.75.0007,14.541,8.3954,22.62,19.1044,24.2654,30.0744,2.0647-13.7691-6.0139-27.95-24.2654-38.4879-32.7922-18.9326-85.9579-18.9333-118.75-.0011-18.25,10.5368-26.3277,24.7172-24.2633,38.4859C858.8441,821.19,866.922,810.4819,881.4617,802.0875Z" transform="translate(-25)" fill="url(#k)"/><path d="M1013.1333,787.0575c-39.5263-23.2857-103.9352-23.8528-143.8629-1.2666s-40.2536,59.7731-.7284,83.0588,103.9337,23.8538,143.8617,1.2672S1052.658,810.3442,1013.1333,787.0575Zm-12.92,75.1767C989.26,868.5587,976.0147,872.72,962.032,874.819l-1.5245-5.0084a4.8022,4.8022,0,0,0-4.594-3.4045H925.7614a4.804,4.804,0,0,0-4.595,3.4045l-1.5231,5.0077c-13.9817-2.0992-27.2252-6.261-38.1788-12.5851-32.7929-18.9322-32.794-49.6277-.0021-68.5592s85.9572-18.9319,118.7494.0007S1033.0047,843.3024,1000.2135,862.2342Z" transform="translate(-25)" fill="url(#l)"/><path d="M1000.2118,790.0852c-32.7922-18.9326-85.9582-18.9333-118.7494-.0007-17.1861,9.9219-25.348,23.0748-24.5188,36.0722.7521-11.8012,8.914-23.4742,24.5188-32.4827,32.7912-18.9326,85.9572-18.9322,118.7494.0007,15.6055,9.01,23.7674,20.6832,24.5206,32.4852C1025.5615,813.1617,1017.4,800.0078,1000.2118,790.0852Z" transform="translate(-25)" fill="#fff"/><path d="M1012.4037,866.5274c-39.9277,22.5862-104.3365,22.0192-143.862-1.2672-18.8085-11.0812-28.573-25.3107-29.36-39.6165-.7783,15.4929,8.9771,31.198,29.36,43.206,39.5255,23.286,103.9343,23.8538,143.862,1.2672,20.9262-11.8378,30.9552-27.6866,30.0887-43.4426C1041.7605,841.2248,1031.7413,855.5888,1012.4037,866.5274Z" transform="translate(-25)" fill="#fff"/><path d="M905.2024,872.5549h21.27a.6534.6534,0,0,1,.6534.6534v3.5663a.6535.6535,0,0,1-.6535.6535h-21.27a.6534.6534,0,0,1-.6534-.6534v-3.5663A.6535.6535,0,0,1,905.2024,872.5549Z" fill="#0c0a78"/><path d="M949.8477,872.5549H931.8262a2.2777,2.2777,0,0,0-2.277,2.2777v.3182a2.1755,2.1755,0,0,0,.1227.6061,2.2456,2.2456,0,0,1,2.1543-1.6709h18.0215a2.2477,2.2477,0,0,1,2.1556,1.6709,2.2154,2.2154,0,0,0,.1224-.6061v-.3182A2.2776,2.2776,0,0,0,949.8477,872.5549Z" transform="translate(-25)" fill="url(#m)"/><path d="M947.2232,874.9915s54.5106-18.2679,32.4395-80.9017-65.0442-81.7222-47.733-131.8291c0,0-27.1293,40.5628-1.7775,95.4417s30.9122,48.5752,30.6143,74.822c-.3545,31.182-25.5439,42.4671-25.5439,42.4671Z" transform="translate(-25)" fill="#fff" opacity="0.5"/><path d="M952.1257,670.974s-5.6748-37.4671,29.4686-75.2248c0,0-31.0775,69.4158-20.9119,103.6879C960.6824,699.4371,952.46,677.6525,952.1257,670.974Z" transform="translate(-25)" fill="#fff" opacity="0.5"/></svg>