<svg xmlns="http://www.w3.org/2000/svg" width="1781.6502" height="695" viewBox="0 0 1781.6502 695"><title>hero</title><path d="M1820.52,700c54.6279-74.96,99.2235-153.39,107.4937-234.4673,9.64-94.5056-30.3112-188.1-69.9658-279.9848-14.0208-32.4884-39.544-62.17-42.0627-97.4653-5.735-80.3659-68.1591-81.965-68.1591-81.965-93.5607-6.7433-186.1011,17.9029-261.563,50.3913-258.64,111.3521-372.092,311.8858-643.93,412.3229-63.3321,23.4-133.3708,40.5106-195.1869,65.2128S530.2417,593.4513,517.33,636.0752c-6.5592,21.6541-1.3374,43.5234,12.3073,63.9248Z" transform="translate(-389.1749 -5)" fill="#d59fff" fill-rule="evenodd"/><path d="M2019.53,142.35c-131.18-12.9368-259.4044,49.1743-384.9865,88.6781-54.4864,17.14-111.6789,30.443-169.2295,42.4551-53.4129,11.1487-108.7482,21.3565-163.0529,20.1128-93.61-2.1439-175.6223-38.0681-270.2209-28.4514-101.7941,10.3482-176.185,68.6386-271.4583,96.1382-76.9137,22.2-175.1757,27.6788-222.41,69.8964-23.611,21.1038-27.5271,46.9153-21.4113,70.0431C529.1966,548.2532,579.5918,587.5,643.9489,614.068s142.0149,41.5777,220.9768,52.2345c196.9561,26.5815,410.483,27.4857,616.5682-5.66,158.2329-25.4495,313.0163-71.7953,433.3438-141.2175s203.433-163.1252,209.26-256.1815c1.7637-28.1749-3.743-56.6779-25.61-80.2522s-62.1025-41.6052-110.0058-42.8169" transform="translate(-389.1749 -5)" fill="#ea92ff" fill-rule="evenodd"/><path d="M389.1749,700h1781.65c-3.535-29.6525-68.7-524.2259-474.34-444.5829-376.9325,74.0067-448.0592,318.28-831.4187,159.3263C437.1815,237.3277,389.8706,697.9128,389.8706,697.9128" transform="translate(-389.1749 -5)" fill="#b97bef"/><path d="M2170.2581,700c-12.7371-21.4037-196.45-312.9349-699.8911-217.0733C947.86,582.4186,866.4994,619.93,696.7162,568.4741,577.9861,532.4909,454.7545,635.06,391.376,700Z" transform="translate(-389.1749 -5)" fill="#6b46c1"/><path d="M1587.1832,91.9656l4.0337-8.6435s1.1524-4.61-1.7287-.5763a38.5589,38.5589,0,0,0-4.4567,8.54l-1.3057-8.54s-1.7287-6.3385-1.7287.5763.8766,6.9813.8766,6.9813" transform="translate(-389.1749 -5)" fill="#f7aec1"/><path d="M1586.3189,94.5586c-4.61-1.1524-6.3386-6.9148-2.305-4.0336s5.7624,1.7287,5.7624,1.7287c4.0336,8.0673-1.7287,9.796-1.7287,9.796l-.2881,1.4406-8.6363-.5954-.5835-1.1333s-2.3049-12.101,3.4574-9.796" transform="translate(-389.1749 -5)" fill="#f7aec1"/><path d="M1590.9311,173.7017l43.2484-22.7462s6.3963-9.2,1.5048-18.3434c0,0-5.8911-10.8949-17.9855-2.5851l-34.3,28.46s-8.4837,4.7572-2.5043,13.2667C1580.8947,171.7534,1584.7213,177.5206,1590.9311,173.7017Z" transform="translate(-389.1749 -5)" fill="#f7aec1"/><path d="M1635.6843,132.6121s-5.8911-10.8949-17.9855-2.5851l-20.0555,16.6412c.316,7.074,2.6647,13.9523,5.9487,20.3753l30.5875-16.088S1640.5758,141.7555,1635.6843,132.6121Z" transform="translate(-389.1749 -5)" fill="#00b0c2"/><path d="M1577.3352,160.7347l1.8225-58.9548,9.0314.566,8.3244,59.1643s2.3288,10.6934-8.8278,13.5979C1587.6857,175.1081,1579.0745,174.8663,1577.3352,160.7347Z" transform="translate(-389.1749 -5)" fill="#f7aec1"/><path d="M1693.8393,250.3915a295.5611,295.5611,0,0,0-18.0669-78.396l15.37-2.6944s13.59,25.9333,10.9371,79.5349Z" transform="translate(-389.1749 -5)" fill="#f7aec1"/><polygon points="1312.179 251.985 1313.025 241.833 1304.737 240.553 1304.187 246.888 1312.179 251.985" fill="#f7aec1"/><path d="M1692.8273,258.1725l-.482,5.0171c-3.8122-.2092-2.4159-6.3318-2.4159-6.3318s2.3563-7.5791,9.7924-5.8114c2.4169.4993,3.3215,7.3066,3.3215,7.3066a43.61,43.61,0,0,1-1.1292,6.6189c-.6761,1.6929-2.5235.7346-2.5235.7346a1.3406,1.3406,0,0,1-2.3613.2938,1.3267,1.3267,0,0,1-2.339-.2343c-1.8447,1.63-2.8433-.7834-2.8433-.7834Z" transform="translate(-389.1749 -5)" fill="#f7aec1"/><path d="M1702.8954,399.0775l-13.8447,18.1437s-1.6977,2.4218.7595,5.5369l29.8011-23.5077-6.9243-7.8962Z" transform="translate(-389.1749 -5)" fill="#7644e2"/><polygon points="1244.012 217.836 1267.34 320.655 1313.721 394.078 1325.016 386.131 1287.198 310.842 1286.441 217.836 1244.012 217.836" fill="#6b6dc1"/><polygon points="1228.701 212.966 1237.071 403.403 1250.087 403.403 1261.309 212.966 1228.701 212.966" fill="#6b6dc1"/><rect x="1251.4009" y="100.2645" width="15.3139" height="20.5002" fill="#f7aec1"/><path d="M1682.8908,134.6306a20.7613,20.7613,0,0,0-10.9554-8.3792l-16.0457-5.9448h-15.3139l-16.039,5.9448a20.7646,20.7646,0,0,0-10.9564,8.3792Z" transform="translate(-389.1749 -5)" fill="#f7aec1"/><path d="M1681.6385,248.9742l-2.6781-91.7616,7.0762-14.0658a20.6329,20.6329,0,0,0-14.1012-16.8954l-12.2384-4.5342c-1.2252,5.1651-11.4643,5.1651-11.4643,5.1651-12.7462,0-11.8264-5.0307-11.8264-5.0307l-11.87,4.4a20.6329,20.6329,0,0,0-14.1012,16.8954l6.2388,17.1242-3.094,88.7032Z" transform="translate(-389.1749 -5)" fill="#00b0c2"/><path d="M1626.2459,408.4034l-22.1076,5.6683s-2.8337.8507-2.8337,4.82h37.9575l-.5455-10.4878Z" transform="translate(-389.1749 -5)" fill="#7644e2"/><path d="M1694.9725,173.3906c-3.2207-15.1515-7.0252-28.644-11.3318-36.3748,0,0-7.26-11.2511-17.8019-2.3852,0,0-7.3093,10.4407,1.5056,25.6431,0,0,2.83,9.6207,6.617,23.018C1682.0063,183.34,1689.2254,179.1185,1694.9725,173.3906Z" transform="translate(-389.1749 -5)" fill="#00b0c2"/><path d="M1623.2377,78.2644c-.5965-4.7149-.1125-4.6036-.1635-9.251-.0334-3.119,3.0075-13.8727,6.8831-14.27,5.3717-.5492,3.2619,11.53,3.5789,15.55.4368,5.5426-.9372,11.5287-2.0059,16.9541-.385,1.9579-.3439,5.872-2.5485,6.8177-1.8879.8095-2.705-.3868-3.2955-1.9953C1623.49,86.0854,1623.736,82.2146,1623.2377,78.2644Z" transform="translate(-389.1749 -5)" fill="#8603ed"/><path d="M1625.3645,102.4116c2.1251,8.3137,5.8681,10.6067,5.8681,10.6067l5.0181.9786c2.89-.3678,7.8712-1.5422,7.8712-1.5422,11.4644-3.8976,15.2687-3.6614,17.6367-9.6227.0739-.1843,7.9662-30.986,7.9662-30.986,1.4672-16.0149-15.2927-19.347-17.8259-19.7627-2.5024-.5762-18.4645-5.0144-23.1784,10.3582A83.5132,83.5132,0,0,0,1625.3645,102.4116Z" transform="translate(-389.1749 -5)" fill="#f7aec1"/><path d="M1658.0972,105.5246c-4.611,3.5635-12.4158,5.9008-18.1609,6.5084-10.1969,1.0775-12.4976-6.4354-14.25-14.389.1555,1.8291.3581,3.6881.6692,5.5971,1.9819,7.7559,5.4743,9.8954,5.4743,9.8954l4.68.9121c2.6973-.3428,7.344-1.4384,7.344-1.4384,10.694-3.6364,14.2441-3.4155,16.4527-8.9762.01-.0222.1527-.5735.39-1.4866A10.4692,10.4692,0,0,1,1658.0972,105.5246Z" transform="translate(-389.1749 -5)" fill="#e7a3c1"/><path d="M1663.0522,89.6632c-1.2128,5.67-3.3023,14.0225-6.25,18.8776,4.7975-2.5841,10.4494-9.5064,13.0142-14.2827,4.73-8.8073,3.3186-9.53,3.8728-15.2372.5-5.1556,2.1192-6.5344,1.8274-11.9723-.2468-4.5881-8.3773-17.6732-12.0119-8.2178-1.2012,3.1267,1.3243,8.85,1.5768,12.1193C1665.5958,77.6315,1664.4378,83.19,1663.0522,89.6632Z" transform="translate(-389.1749 -5)" fill="#8603ed"/><path d="M1662.2945,89.1265s2.8336-6.1762,7.29-2.5168c0,0,2.0281,1.5835-.4714,5.7135,0,0-3.6268,5.943-7.9739,2.6512Z" transform="translate(-389.1749 -5)" fill="#e7a3c1"/><path d="M1662.9946,68.2739s-.2757,17.5071-2.3066,23.37l2.1557.4254s1.1322-7.5792,5.0337-7.67l1.8474-12.5533Z" transform="translate(-389.1749 -5)" fill="#8603ed"/><path d="M1645.9876,70.3251c-5.074-2.3153-8.3023-3.5021-13.3674-5.4736-4.5546-1.7715-9.8964-8.0026-12.5129-12.2161-2.5361-4.0849-1.5635-9.47-1.22-14.0781,1.445,3.0161,8.2071,5.31,11.35,5.4955.6059-2.7771-1.6968-6.8111-1.8686-9.734,4.6236-1.72,9,5.4369,13.06,7.1615,5.7835,2.4553,12.3255,3.52,18.355,5.6644,5.5147,1.9608,10.42,5.3236,12.4457,10.7345C1679.4011,77.0323,1655.66,74.7383,1645.9876,70.3251Z" transform="translate(-389.1749 -5)" fill="#8603ed"/><path d="M1588.0476,102.05s5.7623-1.7287,1.7287-9.796c0,0-1.7287,1.1525-5.7624-1.7287s-2.3049,2.8812,2.305,4.0336" transform="translate(-389.1749 -5)" fill="none" stroke="#e7a3c1" stroke-miterlimit="10"/><path d="M1659.6105,94.6994s-4.87,6.9575-11.132,4.87-5.566-3.4787-11.8277-2.783-9.6963,1.3915-12.1535-2.0872c0,0-2.4572,9.74.3258,13.9149,0,0,5.5659,9.74,12.5234,6.9575s23.6554,2.0873,24.2077-20.3Zm-18.62,11.4436s-3.5334,3.4232-8.3369-.8279,10.479-2.6173,10.479-2.6173S1643.7948,104.7958,1640.99,106.143Z" transform="translate(-389.1749 -5)" fill="#8603ed"/><path d="M1868.488,103.705l-1.6825-9.3888s.0681-4.7512,1.8187-.1137a38.555,38.555,0,0,1,2.1179,9.397l3.4518-7.9195s3.2962-5.6834,1.5231,1-2.6374,6.5232-2.6374,6.5232" transform="translate(-389.1749 -5)" fill="#f7aec1"/><path d="M1868.6586,106.433c4.7513.0681,7.9-5.0583,3.2621-3.3078s-6.0129.1934-6.0129.1934c-5.9673,6.7633-.8409,9.9118-.8409,9.9118l-.0909,1.4663,8.5,1.6389.8547-.9458s5.3307-11.1054-.83-10.355" transform="translate(-389.1749 -5)" fill="#f7aec1"/><path d="M1843.9074,181.7476l-35.97-33.0751s-3.8235-10.5325,3.2489-18.116c0,0,8.4877-9.02,18.0471,2.113l25.8558,36.3031s6.98,6.7734-.9812,13.4653C1854.1079,182.4379,1848.9305,187.0311,1843.9074,181.7476Z" transform="translate(-389.1749 -5)" fill="#f7aec1"/><path d="M1811.1862,130.5565s8.4877-9.02,18.0471,2.113l15.1181,21.2273c-2.1193,6.7564-6.1531,12.8025-10.9743,18.1688l-25.44-23.3931S1804.1138,138.14,1811.1862,130.5565Z" transform="translate(-389.1749 -5)" fill="#00b0c2"/><path d="M1860.3737,172.7l13.355-57.4512-8.8746-1.7687-23.2163,55.0519s-4.9929,9.7388,5.0459,15.4068C1846.6837,183.9391,1855.0691,185.9134,1860.3737,172.7Z" transform="translate(-389.1749 -5)" fill="#f7aec1"/><path d="M1865.0669,113.23s-5.1264-3.1485.8409-9.9118c0,0,1.3754,1.5572,6.0129-.1934s1.4892,3.3759-3.2621,3.3078" transform="translate(-389.1749 -5)" fill="none" stroke="#e7a3c1" stroke-miterlimit="10"/><path d="M1762.2894,407.2587l-20.42,10.1939s-2.5907,1.427-1.7563,5.3055l37.1075-7.9836-2.7394-10.1382Z" transform="translate(-389.1749 -5)" fill="#7644e2"/><polygon points="1382.561 213.329 1371.67 315.915 1373.114 402.259 1386.755 400.098 1393.82 315.848 1420.655 232.013 1382.561 213.329" fill="#6b77c1"/><polygon points="1435.412 211.814 1427.042 402.251 1414.026 402.251 1402.803 211.814 1435.412 211.814" fill="#6b77c1"/><rect x="1397.398" y="99.1121" width="15.3139" height="20.5002" fill="#f7aec1"/><path d="M1759.5718,133.4782a20.7615,20.7615,0,0,1,10.9554-8.379l16.0457-5.945h15.3139l16.039,5.945a20.7649,20.7649,0,0,1,10.9564,8.379Z" transform="translate(-389.1749 -5)" fill="#f7aec1"/><path d="M1760.8241,247.822l2.6781-91.7618-7.0762-14.0656a20.6325,20.6325,0,0,1,14.1012-16.8954l12.2384-4.5344c1.2252,5.1652,11.4643,5.1652,11.4643,5.1652,12.7462,0,11.8262-5.0307,11.8262-5.0307l11.87,4.4a20.6323,20.6323,0,0,1,14.1011,16.8954l-6.2387,17.124,3.094,88.7034Z" transform="translate(-389.1749 -5)" fill="#8603ed"/><path d="M1816.2167,407.251l22.1074,5.6683s2.8339.8509,2.8339,4.82h-37.9575l.5453-10.4878Z" transform="translate(-389.1749 -5)" fill="#7644e2"/><path d="M1821.0839,78.4879c.5965-4.7146-.408-9.2279-.3571-13.8753.0336-3.119-.578-7.8242-4.4535-8.2217-5.3717-.5493-7.03,8.73-7.3469,12.75-.4368,5.5426.9372,11.5287,2.0059,16.9541.385,1.9579.3437,5.8718,2.5485,6.8177,1.8879.8094,3.8161-1.0966,4.7781-2.5139C1820.5819,86.9814,1820.5856,82.4384,1821.0839,78.4879Z" transform="translate(-389.1749 -5)" fill="#8603ed"/><path d="M1817.0981,101.2591c-2.1251,8.3139-5.8681,10.607-5.8681,10.607l-5.0183.9783c-2.89-.3677-7.871-1.542-7.871-1.542-11.4644-3.8977-15.2689-3.6615-17.6369-9.6226-.0739-.1845-7.966-30.986-7.966-30.986-1.4673-16.015,15.2927-19.347,17.8258-19.7628,2.5025-.5762,18.4646-5.0144,23.1783,10.3581A83.5129,83.5129,0,0,1,1817.0981,101.2591Z" transform="translate(-389.1749 -5)" fill="#f7aec1"/><path d="M1784.3654,104.3722c4.611,3.5637,12.4158,5.9007,18.1609,6.5086,10.1969,1.0775,12.4976-6.4356,14.25-14.3892-.1555,1.8293-.3581,3.6883-.6692,5.5972-1.9819,7.756-5.4743,9.8953-5.4743,9.8953l-4.68.9123c-2.6974-.3428-7.344-1.4384-7.344-1.4384-10.6942-3.6366-14.2441-3.4155-16.4528-8.9764-.01-.0221-.1526-.5733-.39-1.4864A10.4634,10.4634,0,0,0,1784.3654,104.3722Z" transform="translate(-389.1749 -5)" fill="#e7a3c1"/><path d="M1773.5655,95.3661A38.6051,38.6051,0,0,1,1768.64,81.68c-.6319-4.4854-2.9039-4.6093-3.1064-8.9928-.2612-5.6519,2.4649-11.5,5.482-16.69a20.4469,20.4469,0,0,1,12.0069-9.8117c5.2889-1.5777,10.8083.2208,15.8306-2.7684,2.09-1.2445,4.26-3.7094,6.951-3.721,4.0907-.0182,3.0211,3.6038,5.1133,5.2718,3.6317,2.8951,9.0128-7.1442,11.453.8267,1.48,4.8329.0566,11.8542-3.7949,15.0278-4.1819,3.4444-9.7926,3.5923-14.9472,3.6749a62.6588,62.6588,0,0,0-15.7538,2.0405c-4.225,1.1072-5.603,1.01-7.5879,5.5818a26.4214,26.4214,0,0,0-1.1742,16.935c1.2568,4.1923.8507,5.1536,2.2287,10.6134,0,0,.8151,2.8136,4.4085,7.2806A49.2475,49.2475,0,0,1,1773.5655,95.3661Z" transform="translate(-389.1749 -5)" fill="#8603ed"/><path d="M1780.1681,87.9743s-2.8336-6.1764-7.29-2.5168c0,0-2.0281,1.5835.4714,5.7133,0,0,3.6268,5.943,7.9739,2.6513Z" transform="translate(-389.1749 -5)" fill="#e7a3c1"/><path d="M1779.7235,73.5745s.02,11.0543,2.0511,16.9174l-2.1557.4254s-1.1322-7.5792-5.0337-7.67Z" transform="translate(-389.1749 -5)" fill="#8603ed"/><path d="M1751.7517,256.107s1.6938-45.5827,17.4514-86.6706l-17.7539-4.0187s-10.5906,35.5319-7.9375,89.1337Z" transform="translate(-389.1749 -5)" fill="#f7aec1"/><polygon points="1355.062 257.7 1354.216 247.548 1362.504 246.268 1363.054 252.603 1355.062 257.7" fill="#f7aec1"/><path d="M1752.7637,263.8878l.482,5.0173c3.8122-.2095,2.4161-6.3318,2.4161-6.3318s-2.3565-7.5792-9.7925-5.8114c-2.417.4993-3.3216,7.3064-3.3216,7.3064a43.61,43.61,0,0,0,1.1292,6.6189c.6761,1.693,2.5235.7347,2.5235.7347a1.3406,1.3406,0,0,0,2.3613.2938,1.3269,1.3269,0,0,0,2.3392-.2344c1.8445,1.63,2.8433-.7835,2.8433-.7835Z" transform="translate(-389.1749 -5)" fill="#f7aec1"/><path d="M1747.6187,169.5074c3.2207-15.1517,7.0252-28.644,11.3318-36.3748,0,0,10.7442-13.9784,17.8021-2.3852,0,0,3.7007,2.7308-.04,18.859,0,0-4.2952,16.4048-8.0825,29.8021C1760.585,179.4565,1753.3658,175.2353,1747.6187,169.5074Z" transform="translate(-389.1749 -5)" fill="#00b0c2"/><path d="M1818.1355,94.8156c-5.6715,6.3779-15.201-.1162-24.2457,1.971s-11.8277-6.2617-13.561-1.971,3.1248,17.2775,11.4737,18.669,9.0448,9.0447,18.7852,5.566S1818.1355,94.8156,1818.1355,94.8156Zm-6.5859,10.9808s-3.1884,3.7466-8.3778-.0238,10.1794-3.6112,10.1794-3.6112S1814.212,104.1861,1811.55,105.7964Z" transform="translate(-389.1749 -5)" fill="#8603ed"/></svg>