<svg xmlns="http://www.w3.org/2000/svg" xmlns:xlink="http://www.w3.org/1999/xlink" width="2303" height="2161.044" viewBox="0 0 2303 2161.044"><defs><clipPath id="a"><rect width="2303" height="2161.044" transform="translate(5189 1576.03) rotate(-180)" fill="none"/></clipPath><clipPath id="b"><path d="M5250.963,67.6c-210.509-15.172-418.722,40.281-588.509,113.379-581.931,250.539-837.2,701.733-1448.823,927.714-142.5,52.648-300.08,91.147-439.164,146.726s-263.029,133.663-292.079,229.566c-34.311,113.271,74.549,229.175,232.1,300.048s356.488,103.81,553.1,125.155c588.389,63.874,1206.086,36.225,1770.163-79.233,101.053-20.685,204.514-45.781,273.95-92.766,41.954-28.388,68.706-63,93.969-97.3,126.918-172.3,231.649-352.842,250.7-539.621,21.69-212.635-68.2-423.22-157.421-629.957q-47.319-109.647-94.639-219.294c-31.386-72.725-69.328-151.329-173.843-196.137" fill="none" clip-rule="evenodd"/></clipPath></defs><g transform="translate(-2886 585.014)" opacity="0.65"><g clip-path="url(#a)"><g clip-path="url(#b)"><path d="M4736.817,7.292c-118.994,64.284-185.333,159.483-176.435,253.191,1.234,12.988,4.087,26.388,15.654,37.568,17.7,17.112,51.921,25.713,83.806,33.5,55.177,13.477,110.887,28.03,155.1,51.3s75.8,56.963,69.672,91.232c-6.623,37.032-54.662,67.214-106.44,89.588-141.914,61.322-332.139,84.1-504.871,60.465-56.58-7.743-112.65-20.722-154.549-43.9-92.76-51.315-91.993-136.643-64.542-208.93,39.361-103.65,120.414-202,235.027-285.172,80.054-58.1,183.21-110.906,309.739-125.231,59.671-6.756,138.9,3.238,149.755,37.623,5.7,18.057-10.741,35.815-28.182,51.189" fill="#b58fdb" fill-rule="evenodd"/></g><path d="M5250.963,67.6c-210.509-15.172-418.722,40.281-588.509,113.379-581.931,250.539-837.2,701.733-1448.823,927.714-142.5,52.648-300.08,91.147-439.164,146.726s-263.029,133.663-292.079,229.566c-34.311,113.271,74.549,229.175,232.1,300.048s356.488,103.81,553.1,125.155c588.389,63.874,1206.086,36.225,1770.163-79.233,101.053-20.685,204.514-45.781,273.95-92.766,41.954-28.388,68.706-63,93.969-97.3,126.918-172.3,231.649-352.842,250.7-539.621,21.69-212.635-68.2-423.22-157.421-629.957q-47.319-109.647-94.639-219.294c-31.386-72.725-69.328-151.329-173.843-196.137" fill="#d1a1d6" fill-rule="evenodd"/><path d="M5817.813,535.462c-290.683-58.865-591.858,50.931-881.966,110.725-125.869,25.943-256.921,42.682-388.481,56.45-122.1,12.777-248.289,23.011-369.561,7.846-209.047-26.14-384.432-125.25-598.372-125.291-230.214-.044-410.019,113.473-629.547,153.307-177.224,32.158-398.422,22.019-513.775,105.749-57.662,41.856-72.312,98.739-63.9,151.9,17.115,108.109,120.972,207.448,258.971,281.59s308.405,125.444,482.723,167.3c434.8,104.4,912.554,155.107,1381.409,127.9,359.989-20.891,717.02-89.343,1002.187-217.3s492.552-318.758,526.809-525.726c10.372-62.664,4.544-127.721-39.029-185.474s-129.524-107.287-236.474-120.921" fill="#b1c9dc" fill-rule="evenodd"/><path d="M5817.813,535.462c-290.683-58.865-591.858,50.931-881.966,110.725-125.869,25.943-256.921,42.682-388.481,56.45-122.1,12.777-248.289,23.011-369.561,7.846-209.047-26.14-384.432-125.25-598.372-125.291-230.214-.044-410.019,113.473-629.547,153.307-177.224,32.158-398.422,22.019-513.775,105.749-57.662,41.856-72.312,98.739-63.9,151.9,17.115,108.109,120.972,207.448,258.971,281.59s308.405,125.444,482.723,167.3c434.8,104.4,912.554,155.107,1381.409,127.9,359.989-20.891,717.02-89.343,1002.187-217.3s492.552-318.758,526.809-525.726c10.372-62.664,4.544-127.721-39.029-185.474s-129.524-107.287-236.474-120.921" fill="#b97bef" fill-rule="evenodd"/><path d="M3160.4,858.114c-155.388,78.6-346.063,124.277-548.111,146.1-77.547,8.378-155.875,13.572-234.6,16.164a213.993,213.993,0,0,1-5.472-24.232c-8.416-53.163,6.234-110.046,63.9-151.9,115.353-83.73,336.551-73.591,513.775-105.749,219.528-39.834,399.333-153.35,629.548-153.307,12,0,23.871.36,35.647.956C3447.736,667.876,3325.17,774.768,3160.4,858.114Z" fill="#cda5d6"/><path d="M6134.9,611.409C5577.169,825.258,4963.682,991,4321.293,1101.378c-230.82,39.662-465.683,72.291-691.111,121.128-194.725,42.186-380.959,96.155-566.761,150.014q-427.242,123.846-854.484,247.692c-67.552,19.581-137.722,40.414-182.163,75.6-8.109,6.421-15.537,13.97-13.7,21.833,3.229,13.813,31.257,20.054,54.831,23.335,283.215,39.415,575.971,49.759,867.073,57.376,972.077,25.436,1946.427,22.162,2917.92-9.8,98.485-3.24,214.688-13.142,258.953-63.8,35.528-40.655,7.121-89.145-18.092-132.269-184.088-314.855-169.328-666.753,40.941-976.146" fill="#9846e0" fill-rule="evenodd"/><path d="M2317.157,416.656c188.27,315.769,651.1,585.706,1221.494,648.923,187.051,20.731,381.771,19.862,563.08,53.45,353.1,65.415,609.893,252.488,966.728,310.837,82.67,13.518,176.818,22.492,228.68,61.877,62.8,47.693,28.453,120.781-48.682,160.936s-183.926,54.8-286.648,64.443c-433.2,40.683-876.652,17.842-1311.434-16.829-346.84-27.659-699.617-64.32-1004.941-162.832-157.747-50.9-299.914-117.686-418.071-196.407-66.65-44.4-126.275-93.187-162.75-147.952-46.152-69.3-53.305-144.825-59.951-218.923-13.189-147.067-25.926-296.879,38.691-439.383,24.461-53.943,81.713-115.71,178.722-116.266,76.814-.44,134.4,38.566,180.187,74.009" fill="#9f76b5" fill-rule="evenodd"/><path d="M2659.7,1496.936c232.126-90.791,437.087-207.125,683.051-285.767,190.424-60.883,410.425-89.221,624.725-111.3,45.339,4.9,90.2,11,134.254,19.16,353.1,65.415,609.893,252.488,966.727,310.837,82.67,13.518,176.819,22.491,228.681,61.877,62.8,47.693,28.453,120.781-48.682,160.936s-183.926,54.8-286.648,64.443c-433.2,40.683-876.652,17.842-1311.434-16.829-346.839-27.659-699.618-64.32-1004.94-162.832q-25.08-8.093-49.583-16.753C2617.3,1513.037,2638.622,1505.181,2659.7,1496.936Z" fill="#8603ed"/></g><path d="M4692.733,383.115l-3.119-17.4s.126-8.808,3.372-.211a71.482,71.482,0,0,1,3.926,17.42l6.4-14.681s6.111-10.536,2.824,1.854-4.889,12.093-4.889,12.093" fill="#f7aec1"/><path d="M4693.049,388.172c8.808.127,14.644-9.377,6.048-6.131s-11.147.358-11.147.358c-11.062,12.538-1.559,18.374-1.559,18.374l-.168,2.718,15.757,3.038,1.584-1.753s9.882-20.587-1.539-19.2" fill="#f7aec1"/><path d="M4647.167,527.787l-66.68-61.313s-7.087-19.525,6.023-33.583c0,0,15.734-16.721,33.455,3.917l47.93,67.3s12.939,12.556-1.819,24.961C4666.076,529.066,4656.478,537.581,4647.167,527.787Z" fill="#f7aec1"/><path d="M4586.51,432.891s15.734-16.721,33.455,3.917l28.025,39.35c-3.929,12.525-11.406,23.733-20.344,33.681l-47.159-43.365S4573.4,446.949,4586.51,432.891Z" fill="#00b0c2"/><path d="M4677.691,511.015l24.757-106.5L4686,401.237,4642.96,503.289s-9.256,18.053,9.354,28.56C4652.314,531.849,4667.858,535.509,4677.691,511.015Z" fill="#f7aec1"/><path d="M4686.391,400.773s-9.5-5.836,1.559-18.374c0,0,2.55,2.887,11.147-.358s2.76,6.258-6.048,6.131" fill="none" stroke="#e7a3c1" stroke-miterlimit="10" stroke-width="1"/><path d="M4495.868,945.827l-37.853,18.9s-4.8,2.645-3.256,9.835l68.788-14.8-5.078-18.794Z" fill="#7644e2"/><path d="M4513.38,595.6,4493.19,785.767l2.677,160.06,25.286-4.005,13.1-156.178L4584,630.234Z" fill="#6b77c1"/><path d="M4611.352,592.791l-15.516,353.023h-24.129l-20.8-353.023Z" fill="#6b77c1"/><rect width="28.388" height="38.002" transform="translate(4540.883 383.87)" fill="#f7aec1"/><path d="M4490.83,438.307a38.484,38.484,0,0,1,20.308-15.532l29.745-11.021h28.388L4599,422.775a38.489,38.489,0,0,1,20.31,15.532Z" fill="#f7aec1"/><path d="M4493.151,650.272l4.965-170.1L4485,454.1a38.245,38.245,0,0,1,26.139-31.32l22.687-8.406c2.272,9.575,21.252,9.575,21.252,9.575,23.629,0,21.923-9.325,21.923-9.325l22,8.156a38.247,38.247,0,0,1,26.14,31.32l-11.566,31.743,5.736,164.434Z" fill="#8603ed"/><path d="M4595.835,945.813l40.982,10.508s5.253,1.577,5.253,8.934h-70.363l1.01-19.442Z" fill="#7644e2"/><path d="M4604.858,336.369c1.106-8.74-.757-17.106-.662-25.721.062-5.782-1.072-14.5-8.256-15.241-9.958-1.018-13.031,16.182-13.619,23.635-.81,10.275,1.737,21.372,3.718,31.429.714,3.629.638,10.885,4.725,12.638,3.5,1.5,7.074-2.032,8.857-4.66C4603.927,352.114,4603.934,343.692,4604.858,336.369Z" fill="#8603ed"/><path d="M4597.469,378.581c-3.939,15.412-10.878,19.663-10.878,19.663l-9.3,1.814c-5.358-.682-14.591-2.859-14.591-2.859-21.252-7.225-28.305-6.788-32.7-17.838-.137-.342-14.767-57.44-14.767-57.44-2.72-29.688,28.349-35.865,33.045-36.635,4.639-1.068,34.229-9.3,42.967,19.2C4591.248,304.487,4604.159,337.51,4597.469,378.581Z" fill="#f7aec1"/><path d="M4536.791,384.352c8.548,6.606,23.016,10.939,33.666,12.065,18.9,2,23.167-11.93,26.416-26.674-.289,3.391-.664,6.838-1.241,10.376-3.674,14.378-10.148,18.344-10.148,18.344l-8.676,1.691c-5-.636-13.614-2.667-13.614-2.667-19.824-6.741-26.4-6.331-30.5-16.64-.019-.04-.283-1.062-.723-2.755A19.394,19.394,0,0,0,4536.791,384.352Z" fill="#e7a3c1"/><path d="M4516.771,367.657a71.546,71.546,0,0,1-9.132-25.371c-1.171-8.314-5.383-8.544-5.758-16.67-.484-10.477,4.569-21.318,10.162-30.939,5.258-9.051,12.636-15.317,22.258-18.188,9.8-2.925,20.036.409,29.346-5.132,3.874-2.307,7.9-6.877,12.885-6.9,7.583-.034,5.6,6.681,9.479,9.772,6.732,5.367,16.707-13.243,21.231,1.533,2.743,8.959.1,21.975-7.035,27.858-7.752,6.385-18.153,6.659-27.708,6.812a116.154,116.154,0,0,0-29.2,3.783c-7.832,2.052-10.386,1.872-14.066,10.347-4.156,9.575-4.975,22.066-2.177,31.393,2.33,7.772,1.577,9.554,4.132,19.675,0,0,1.511,5.215,8.172,13.5A91.276,91.276,0,0,1,4516.771,367.657Z" fill="#8603ed"/><path d="M4529.01,353.955s-5.253-11.45-13.514-4.666c0,0-3.759,2.935.874,10.591,0,0,6.723,11.017,14.782,4.915Z" fill="#e7a3c1"/><path d="M4528.186,327.261s.038,20.492,3.8,31.361l-4,.788s-2.1-14.05-9.331-14.219Z" fill="#8603ed"/><path d="M4476.333,665.63s3.14-84.5,32.351-160.665l-32.911-7.45s-19.633,65.867-14.714,165.232Z" fill="#f7aec1"/><path d="M4462.4,677.852l-1.568-18.819,15.364-2.373,1.02,11.743Z" fill="#f7aec1"/><path d="M4478.209,680.054l.894,9.3c7.067-.389,4.479-11.738,4.479-11.738s-4.369-14.05-18.153-10.773c-4.48.926-6.157,13.544-6.157,13.544a80.75,80.75,0,0,0,2.093,12.27c1.253,3.139,4.678,1.362,4.678,1.362,1.812,3.439,4.377.545,4.377.545,2.579,2.864,4.336-.435,4.336-.435,3.42,3.021,5.271-1.452,5.271-1.452Z" fill="#f7aec1"/><path d="M4468.672,505.1c5.97-28.087,13.023-53.1,21.006-67.429,0,0,19.917-25.913,33-4.422,0,0,6.86,5.062-.075,34.96,0,0-7.962,30.41-14.983,55.246C4492.708,523.54,4479.326,515.714,4468.672,505.1Z" fill="#00b0c2"/><path d="M4171.265,361.353l7.477-16.023s2.137-8.545-3.2-1.068a71.492,71.492,0,0,0-8.262,15.831l-2.42-15.831s-3.205-11.75-3.205,1.068,1.625,12.942,1.625,12.942" fill="#f7aec1"/><path d="M4169.663,366.16c-8.546-2.136-11.75-12.818-4.273-7.477s10.682,3.2,10.682,3.2c7.477,14.955-3.2,18.16-3.2,18.16l-.534,2.67-16.009-1.1-1.082-2.1s-4.273-22.432,6.409-18.16" fill="#f7aec1"/><path d="M4178.213,512.872l80.171-42.166s11.857-17.055,2.79-34c0,0-10.921-20.2-33.341-4.792l-63.583,52.757s-15.727,8.818-4.642,24.593C4159.608,509.26,4166.7,519.951,4178.213,512.872Z" fill="#f7aec1"/><path d="M4261.174,436.7s-10.921-20.2-33.341-4.792l-37.178,30.848c.586,13.114,4.94,25.864,11.028,37.771l56.7-29.823S4270.241,453.651,4261.174,436.7Z" fill="#00b0c2"/><path d="M4153.009,488.834l3.379-109.287,16.742,1.049,15.431,109.676s4.317,19.822-16.365,25.207C4172.2,515.479,4156.233,515.03,4153.009,488.834Z" fill="#f7aec1"/><path d="M4368.979,655.035s-4.281-69.16-33.492-145.326l28.492-5s25.193,48.074,20.274,147.438Z" fill="#f7aec1"/><path d="M4382.909,667.257l1.568-18.819-15.364-2.373-1.02,11.743Z" fill="#f7aec1"/><path d="M4367.1,669.459l-.894,9.3c-7.067-.388-4.479-11.738-4.479-11.738s4.369-14.05,18.153-10.773c4.48.926,6.157,13.545,6.157,13.545a80.842,80.842,0,0,1-2.093,12.27c-1.253,3.138-4.678,1.361-4.678,1.361-1.812,3.439-4.377.545-4.377.545-2.579,2.864-4.336-.434-4.336-.434-3.42,3.02-5.271-1.453-5.271-1.453Z" fill="#f7aec1"/><path d="M4385.766,930.661,4360.1,964.295s-3.148,4.49,1.408,10.264l55.243-43.577-12.836-14.638Z" fill="#7644e2"/><path d="M4256.543,603.955l43.245,190.6,85.978,136.106,20.939-14.732L4336.6,776.363l-1.4-172.408Z" fill="#6b6dc1"/><path d="M4228.161,594.926l15.516,353.023h24.129l20.8-353.023Z" fill="#6b6dc1"/><rect width="28.388" height="38.002" transform="translate(4270.241 386.006)" fill="#f7aec1"/><path d="M4348.683,440.444a38.483,38.483,0,0,0-20.309-15.533l-29.744-11.02h-28.389l-29.732,11.02a38.487,38.487,0,0,0-20.31,15.533Z" fill="#f7aec1"/><path d="M4346.361,652.408,4341.4,482.3l13.117-26.074a38.249,38.249,0,0,0-26.14-31.32l-22.687-8.406c-2.271,9.575-21.252,9.575-21.252,9.575-23.628,0-21.923-9.326-21.923-9.326l-22,8.157a38.248,38.248,0,0,0-26.14,31.32l11.565,31.743L4220.2,652.408Z" fill="#00b0c2"/><path d="M4243.677,947.949l-40.982,10.508s-5.252,1.577-5.252,8.934h70.363l-1.011-19.442Z" fill="#7644e2"/><path d="M4371.079,512.295c-5.97-28.087-13.023-53.1-21.006-67.43,0,0-13.459-20.857-33-4.421,0,0-13.55,19.354,2.791,47.535,0,0,5.245,17.835,12.266,42.67C4347.043,530.738,4360.425,522.913,4371.079,512.295Z" fill="#00b0c2"/><path d="M4238.1,335.955c-1.106-8.74-.209-8.534-.3-17.149-.062-5.782,5.575-25.717,12.759-26.454,9.958-1.018,6.047,21.373,6.635,28.826.809,10.275-1.738,21.372-3.719,31.429-.713,3.629-.637,10.885-4.724,12.638-3.5,1.5-5.014-.717-6.109-3.7C4238.569,350.453,4239.025,343.278,4238.1,335.955Z" fill="#8603ed"/><path d="M4242.043,380.718c3.94,15.411,10.878,19.662,10.878,19.662l9.3,1.814c5.358-.682,14.591-2.859,14.591-2.859,21.252-7.225,28.3-6.787,32.694-17.838.137-.342,14.767-57.44,14.767-57.44,2.72-29.688-28.349-35.865-33.044-36.635-4.639-1.068-34.229-9.3-42.967,19.2C4248.265,306.623,4235.354,339.647,4242.043,380.718Z" fill="#f7aec1"/><path d="M4302.722,386.488c-8.548,6.606-23.016,10.939-33.666,12.065-18.9,2-23.168-11.929-26.416-26.673.288,3.39.664,6.837,1.24,10.375,3.674,14.378,10.149,18.344,10.149,18.344l8.676,1.691c5-.636,13.613-2.667,13.613-2.667,19.825-6.741,26.405-6.331,30.5-16.639.019-.042.283-1.063.722-2.756A19.416,19.416,0,0,1,4302.722,386.488Z" fill="#e7a3c1"/><path d="M4311.907,357.085c-2.248,10.512-6.122,25.995-11.587,34.995,8.894-4.791,19.371-17.623,24.125-26.477,8.769-16.326,6.152-17.667,7.18-28.246.927-9.557,3.928-12.113,3.387-22.193-.458-8.506-15.529-32.762-22.267-15.234-2.227,5.8,2.455,16.4,2.923,22.466C4316.622,334.782,4314.476,345.086,4311.907,357.085Z" fill="#8603ed"/><path d="M4310.5,356.091s5.253-11.45,13.514-4.666c0,0,3.76,2.935-.874,10.591,0,0-6.723,11.017-14.781,4.915Z" fill="#e7a3c1"/><path d="M4311.8,317.435s-.511,32.454-4.276,43.323l4,.788s2.1-14.049,9.331-14.219l3.424-23.27Z" fill="#8603ed"/><path d="M4280.274,321.237c-9.406-4.292-15.391-6.492-24.78-10.146-8.443-3.284-18.346-14.835-23.2-22.646-4.7-7.572-2.9-17.555-2.263-26.1,2.679,5.591,15.214,9.844,21.04,10.187,1.124-5.148-3.145-12.626-3.464-18.044,8.571-3.188,16.685,10.078,24.211,13.275,10.721,4.552,22.848,6.526,34.026,10.5,10.223,3.635,19.315,9.868,23.071,19.9C4342.214,333.671,4298.2,329.418,4280.274,321.237Z" fill="#8603ed"/><path d="M4172.867,380.047s10.682-3.2,3.2-18.16c0,0-3.2,2.137-10.682-3.2s-4.273,5.341,4.273,7.477" fill="none" stroke="#e7a3c1" stroke-miterlimit="10" stroke-width="1"/></g></svg>